<svg xmlns="http://www.w3.org/2000/svg" viewBox="0 0 446.08 511.27"><defs><style>.cls-1{fill:#a09337;}.cls-2{fill:#1e4c3c;}</style></defs><g id="Layer_2" data-name="Layer 2"><g id="Layer_1-2" data-name="Layer 1"><path class="cls-1" d="M395.64,48.13A33,33,0,0,1,397,53.39c.74,8.87.79,17.85,2.16,26.62,1.75,11.19.52,21.74-4.63,31.68-2.85,5.52-1.82,10.31.7,15.43a45.47,45.47,0,0,0,12.59,15.5,12.79,12.79,0,0,0-1.2-3.14,47.29,47.29,0,0,1-7.53-15.86c-.45-1.57-1.54-3-1.92-4.55-.15-.66.8-1.58,1.25-2.37.67.63,2,1.34,1.9,1.87-.87,6.55,3.13,11.37,6.14,16.69-.16-.87-.25-1.75-.48-2.59-1.33-4.92-2.73-9.82-4-14.75a2.55,2.55,0,0,1,.6-2c.27-.33,1.42-.46,1.6-.23.48.63,1.08,1.63.88,2.23-1.36,4.23.41,8,2,11.85.38-2.17.69-4.35,1.19-6.51a2.36,2.36,0,0,1,1.33-1.56,2.08,2.08,0,0,1,1.8.86,2.15,2.15,0,0,1-.29,2c-3.14,2.61-2.81,6.24-2.74,9.63a33.81,33.81,0,0,0,6.18,19c8.3,12.13,14.95,25.18,17.46,39.94.23,1.36.28,2.75.41,4.12l-1.07.15c-.73-3.13-1.53-6.25-2.15-9.42-1.42-7.37-5.34-13.51-10.12-19a12.25,12.25,0,0,0-13.5-3.87,4.81,4.81,0,0,1-2.75-.4c-.18-.06-.23-1.49,0-1.57a6.16,6.16,0,0,1,2.79-.64,46.72,46.72,0,0,0,7,.42c-4-2.85-7.71-6.21-13.26-4.92a3.18,3.18,0,0,1-2.37-.54,2.06,2.06,0,0,1,.1-1.94,3.51,3.51,0,0,1,2.41-.36c8.34,1.89,15.46,5.84,20.74,12.84l.7-.54c-1.32-2.39-2.77-4.72-3.93-7.18-5.06-10.76-15-13.35-25.34-14.77-2.51-.34-5.35.72-7.85,1.68a76.44,76.44,0,0,0-10.65,5c-10.28,5.86-21.39,8.1-33.1,7.72-5.87-.19-11.74-.67-17.63-1.07A5.86,5.86,0,0,1,319,157.4a19.7,19.7,0,0,1,3.69-2.45c11.45-4.28,22.93-8.46,34.43-12.64,7.52-2.74,15.24-2.18,22.81-.6,9.57,2,19.53,2.3,28.75,7.23-4.77-10.21-19.08-19.05-28.17-17.47-3.77.66-7.82,1.13-10.3,4.84a2.48,2.48,0,0,1-2,.57c-.4,0-1.12-.93-1-1.2.26-.75.73-1.74,1.37-2,3.06-1.2,6.2-2.19,9.56-3.33a19,19,0,0,0-14.66.54,5.49,5.49,0,0,1-2.81.19c-.18,0-.53-1.4-.35-1.53a5.39,5.39,0,0,1,2.53-1.18c4.76-.34,9.53-.53,14.33-1-6.48-2.51-13-4.93-20.19-3.09a3.51,3.51,0,0,1-2.43-.31,2,2,0,0,1-.16-1.89,3.54,3.54,0,0,1,2.35-.66c3,.27,5.92.71,8.87,1.09.13-.28.27-.56.41-.84a30,30,0,0,1-3.25-2.68,3.91,3.91,0,0,1-.84-2.29c0-.32.86-1,1.27-1,.65.08,1.65.52,1.79,1,1.56,5.55,6.34,6.7,10.89,8.46,5.85,2.28,11.5,5,17.24,7.6l.51-.82c-1-1-1.92-2.18-3-3.11-5.72-4.93-11.37-9.94-17.26-14.66-3.88-3.09-8.26-4-13.15-1.84q-15.54,6.8-31.26,13.22A64,64,0,0,1,302.41,130c-4.61-.16-9.23.57-14.6,1a13.47,13.47,0,0,1,2.2-2.74c10.81-7.71,22.42-13.66,35.6-16.15,4.75-.9,9.47-2.08,14.25-2.6,7.14-.76,14.33-1,20.06-1.45-5.32-1.63-12-4.09-19-5.72a78.26,78.26,0,0,0-35-.07c-12.89,2.85-25.16,1-37.28-3.71-5.48-2.15-11.11-4-17.2-3.07-.73.11-1.47.11-2.22.17l0-1.49a32.15,32.15,0,0,1,4.42-2.4c22.17-8,43.63-5.78,64.51,4.64a18.41,18.41,0,0,0,6.77,2.18,131.49,131.49,0,0,1,33.25,6.62,6.55,6.55,0,0,0,3.06.32C344.82,93.83,328,83.19,307.68,79.63l-13.46-1.94c-4.58.81-9.25,1.44-12,6-.26.44-1.31.63-1.94.56-.4,0-1.1-.91-1-1.2a3.5,3.5,0,0,1,1.31-2c1.8-.93,3.76-1.59,5.55-2.74C281.45,78,276.9,78,272.57,80a5.06,5.06,0,0,1-2.84.21c-.25,0-.58-1.76-.41-1.85A7.32,7.32,0,0,1,272,77.5c4.31-.43,8.64-.94,13-1.11,3.12-.11,6.26.29,9.39.46l13.49,1.86,6.47.9A132.88,132.88,0,0,0,269.9,68.27c-3.52-.3-6.06,1.76-8.4,3.84a63,63,0,0,0-7.17,7.53C246,90,235.75,97.63,223.11,102c-3.54,1.25-6.84,3.17-10.27,4.74-1.31.59-2.65,1.11-4.34,1.8,2.71-10.91,25.79-32.58,48.36-40.76-12.45.23-24.74.65-36.41,6.45-9.85,4.88-20.16,8.87-30.44,12.8C181.79,90.2,173.4,89,165,87c-3.91-.94-8-.91-12-1.46a26.12,26.12,0,0,1-4-1.18c.83-1,1.48-2.31,2.53-3,9.38-5.78,19.36-9.91,30.56-10.26,14-.43,28-2.92,42.06-1.32.49.06,1-.33,2.57-.86-2.92-.87-4.86-1.44-6.8-2-3.67-.8-7.37-1.49-11-2.46-4.49-1.2-8.82-1.78-13.05.87a3,3,0,0,1-2.43,0,2,2,0,0,1-.37-1.9,3.84,3.84,0,0,1,2.22-.95c1.43-.21,2.89-.21,4.34-.3l.37-1.09c-2.27-1.2-4.58-2.35-6.8-3.64a6.35,6.35,0,0,1-2.05-2c-.12-.19.94-1.56,1.18-1.49a9.45,9.45,0,0,1,2.41,1.44c2.86,2,5.7,4.05,8.55,6.08l.87-1c-1.21-1.38-2.52-2.69-3.59-4.18a3.7,3.7,0,0,1-.47-2.38c0-.31,1.05-.86,1.41-.74a2.48,2.48,0,0,1,1.54,1.38c1.32,6.49,6,8.87,11.83,10.12,1.76.37,3.48.94,5.22,1.42,3.27.5,6.53,1.11,9.82,1.5a22.11,22.11,0,0,0,6.7-.3c-8.45-2.28-15.25-7-21.14-13.11-1.66-1.75-3.31-3.53-5-5.2-4.1-4-8.26-7.94-12.37-11.93-1.54-1.49-3-3.06-4.47-4.6l.6-.8a8.59,8.59,0,0,1,2.11.2c6.93,2.57,13.9,5.05,20.75,7.83,6.24,2.53,9.57,8.08,13.05,13.39,2.06,3.15,3.93,6.46,6.28,9.38,2.48,3.07,5.73,4.33,10,3.95,6-.52,12-.24,19-.31L243.41,55c-1.74.21-3.48.52-5.22.61a4.52,4.52,0,0,1-2.36-.58,1.67,1.67,0,0,1-.08-1.58,3.51,3.51,0,0,1,2.25-.84c1.9.35,3.75,1,5.61,1.52-2.76-2.9-5.55-5.77-8.24-8.72A7.08,7.08,0,0,1,234,42.94c-.07-.21,1-1.12,1.16-1a5.49,5.49,0,0,1,2.18,1.77,22.51,22.51,0,0,0,10.76,9.85,46.5,46.5,0,0,1-3.38-3.66,3.83,3.83,0,0,1-.51-2.38c0-.32,1.07-.92,1.35-.78.72.34,1.69.95,1.82,1.6,1.25,6.41,5.63,10.08,11.08,12.78a67.4,67.4,0,0,0,21,6.7c6.85.92,13.59,2.68,21.3,4.27-3.25-2.6-5.6-5.29-8.57-6.74A241.37,241.37,0,0,0,268.67,55c-6.17-2.26-12.14-4.65-17.28-8.74-11-8.75-20.34-18.89-26.92-31.4-.73-1.4-1.29-2.86-1.94-4.3l.82-.8c1.27.56,2.61,1,3.84,1.68,5.45,2.91,10.84,6,16.34,8.82,6.76,3.51,11.82,8.81,16.18,14.89,3.34,4.66,6.7,9.32,9.77,14.17a17.25,17.25,0,0,0,8,7c3.83,1.64,7.61,3.45,11.65,4.95-13.82-16.88-14.09-36.21-10.6-56.46a23.38,23.38,0,0,1,1.92,2.75c2.72,5.39,5.28,10.86,8.06,16.22a34.81,34.81,0,0,1,4.19,16.5c0,4.69-.12,9.37-.12,14,0,6,1.47,11.15,7.05,14.73,4.62,3,8.67,6.87,15.53,8-5.9-6.41-8.62-14.11-15.62-18.39A5,5,0,0,1,298,56.3c-.08-.18,1.26-1.32,1.44-1.2a8.21,8.21,0,0,1,2,2c.87,1.12,1.64,2.34,2.46,3.5.37-.13.73-.28,1.1-.43-.81-2.76-1.68-5.51-2.38-8.29a6,6,0,0,1,.2-2.78c0-.19,1.42-.36,1.55-.15a4.54,4.54,0,0,1,.94,2.61c-.65,4.57,1.25,8.48,3.36,12.54.36-2.17.65-4.35,1.15-6.51A2.32,2.32,0,0,1,311.09,56a2.1,2.1,0,0,1,1.81.83,2.46,2.46,0,0,1-.24,2c-3.77,6.45-3.48,7.72.69,13.62,5.1,7.19,12.71,10.34,20.87,14.08-3.5-5.68-6.36-11.06-9.91-15.92-5.48-7.45-8.85-15.38-8.11-24.79,1.12-14.37.76-28.67-2.51-42.8a15.46,15.46,0,0,1-.11-3c.59,0,1-.1,1.11,0,4.54,7.62,9.9,14.91,13.34,23,4,9.32,3.47,19.5,1.88,29.48-.47,3-.86,6-1.43,9-2.65,13.76,4.65,22.76,14.76,30.06,6.32,4.57,13.23,8.3,20.6,12.85-6.68-11.59-9.62-24.17-17.57-34.23-1-1.26-2.33-2.25-3.37-3.49a3.68,3.68,0,0,1-.95-2.22c0-.42,1.2-1.27,1.54-1.14A4.17,4.17,0,0,1,345.3,65c2.42,4.27,4.76,8.58,7.21,13,1.42-7.7,2.71-14.88,4.09-22A3.5,3.5,0,0,1,357.91,54c.36-.24,1.55.16,1.86.62a2.17,2.17,0,0,1,0,2c-5.46,7-5.07,15.16-4.38,23.34a2.1,2.1,0,0,0,.15.42l1.24.41a16.38,16.38,0,0,1-.33-1.94,17.21,17.21,0,0,1,.18-2.26c.56-6.79,3.59-12,9.57-15.51,1.28-.74,2.29-1.95,3.56-2.67a4.08,4.08,0,0,1,2.44-.14c.23,0,.63.91.51,1.08-.47.67-1.08,1.67-1.72,1.72-5.71.46-8.36,4.67-11,9,1.84-1,3.64-2.14,5.55-3a3.92,3.92,0,0,1,2.49.17c.28.09.54,1.31.31,1.55A3.86,3.86,0,0,1,366.24,70c-5.44.68-7.74,2.89-8.29,8.16-1.32,12.69,3.74,22.85,12.52,31.53a12.85,12.85,0,0,0,1.79,1.12c-1.3-7.37-6-12.49-9.67-18.2a12.5,12.5,0,0,1-1.3-3,3,3,0,0,1,1.34-.81,11.11,11.11,0,0,1,2,2.51c.89,1.72,1.61,3.53,2.4,5.28l1-.25c-.49-2.39-1.09-4.76-1.45-7.16a4.42,4.42,0,0,1,.71-2.33c.1-.2,1.06-.28,1.2-.08.5.63,1.22,1.46,1.15,2.14-1.36,12.84,3.84,22.79,13.38,30.9,3.44,2.93,6.78,6,10.69,8.71-1.47-3.94-2.42-8.19-4.51-11.79C378,97.41,379,78.19,389.1,58.87c1.86-3.56,3.54-7.19,5.29-10.8l1.25.06"></path><path class="cls-1" d="M446.08,293.21c-.22,2.1-.33,4.24-.66,6.33a125.62,125.62,0,0,1-13,38.95,11.77,11.77,0,0,0-1.35,7.34c.68,5.84,1.2,11.72,1.42,17.59a49.21,49.21,0,0,1-10.09,31.78c-4.6,6.18-9.58,12.07-14.43,18a7.57,7.57,0,0,1-2.87,2.1c3.84-23.2,13-44.53,22.68-65.7l-1-.46c-.64.93-1.3,1.83-1.89,2.78-7.26,11.73-16,22.29-25.12,32.62-4.55,5.14-8.2,11.14-11.86,17-2.64,4.24-2.88,9.19-2.14,14.06.18,1.26,1.19,2.37,1.61,3.61a7.38,7.38,0,0,1,.32,2.81c0,.17-1.3.59-1.51.4a4.42,4.42,0,0,1-1.3-2.12,36.86,36.86,0,0,0-2.11-8.51c-2.88,6.21-6,12.33-8.52,18.67-1.07,2.7-1.44,5.85.33,8.76.33.53-.07,1.66-.41,2.39a1.71,1.71,0,0,1-1.58.21,3.45,3.45,0,0,1-1.07-2.19c.32-3.43.85-6.83,1.32-10.36-5.58,4-11,7.93-16.43,11.75a5.27,5.27,0,0,1-2.74.65c-.22,0-.79-1-.66-1.44.2-.62.81-1.54,1.3-1.57,6.77-.53,10.74-5.69,15.57-9.34,1.86-1.4,3.19-3.49,4.76-5.27l-.55-.81c-2.69,1.48-5.33,3-8.06,4.39a3.53,3.53,0,0,1-2.45.22,2,2,0,0,1-.56-1.81,3.33,3.33,0,0,1,2.13-1.14c7.18-.51,12-4.32,15-10.63,2.85-6,5.7-11.93,8.09-18.3-1.83,1.46-3.59,3-5.5,4.37-6.64,4.7-12.95,10.05-20.09,13.82-8.12,4.27-13.82,10.53-18.9,17.74-2.62,3.7-5.2,7.43-7.92,11.05-9.16,12.14-21.39,19.74-35.78,24.19-5.91,1.81-11.72,3.94-17.63,5.82a52.53,52.53,0,0,1-6,1.11c.75-1.51.93-2.4,1.48-2.89,10.13-9,20-18.47,30.62-26.87,5.85-4.6,13.11-7.41,19.72-11,4.87-2.68,9.75-5.37,14.48-8.32a442.23,442.23,0,0,1-56.27,16.55c-10,2.27-19.79,6-26,15.14a10.51,10.51,0,0,0-1.61,5.79c0,2.53,1.27,4.59,4.44,4.64.77,0,1.59.95,2.23,1.61.12.13-.52,1.4-.75,1.38a4.93,4.93,0,0,1-2.71-.77c-1.82-1.55-3.44-3.31-5.56-5.4-1.88,4.91-2.15,9.56.55,14.19.28.5,1.15.85,1.17,1.3a11.34,11.34,0,0,1-.48,2.77c-.81-.44-2.19-.68-2.37-1.3-2.2-7.3-2.68-14.55,1.4-21.46a34.6,34.6,0,0,0,2.37-4.38,44.56,44.56,0,0,0-13.85,13,6.7,6.7,0,0,0,0,7.72c.42.69.14,1.89,0,2.82,0,.17-1.43.41-1.56.21a8.2,8.2,0,0,1-1-2.63,31.47,31.47,0,0,1-.27-3.77c-2.76,2.74-4.48,5.13-4.88,8.42a5,5,0,0,1-1.4,2.45c-.16.16-1.76-.54-1.75-.8a5.61,5.61,0,0,1,.85-2.68c4.43-6.4,8.91-12.75,13.36-19.08-5,2.21-10.21,4.51-15.43,6.72a3.94,3.94,0,0,1-2.45,0,1.63,1.63,0,0,1-.55-1.5c.48-.63,1.29-1.48,1.93-1.46,7.05.3,12.21-4.49,18.33-6.94-3.11.21-6.23.51-9.34.61a5.16,5.16,0,0,1-2.75-.82c-.24-.15,0-1.87.23-1.92a5.72,5.72,0,0,1,2.82.1c5.17,1.77,10.25.94,14.89-1.28,6.38-3,12.44-6.73,18.64-10.14-.07-.31-.15-.6-.23-.9-3.82.22-7.67.73-11.49.59a44.41,44.41,0,0,0-19.73,3.79,61.26,61.26,0,0,1-13,4,15,15,0,0,0-10.06,6.95,76.17,76.17,0,0,0-3.9,6.63c-2.13,4-4.16,8.05-6.22,12.09-5.82,11.47-14.4,20.38-25.12,27.39-2.5,1.64-4.69,3.77-7.08,5.61a5.51,5.51,0,0,1-3,1.09,98,98,0,0,1,17.37-32.66c7.79-9.73,16.41-18.76,27.53-25.43-3.38.34-7,.05-10.12,1.12-16.15,5.55-31.83,4.34-47.18-2.65-5.91-2.68-11.66-5.71-17.46-8.64a21.06,21.06,0,0,1-2.89-2.32c2.06-.42,3.27-.92,4.43-.85,15,1,30.17,1.59,45.13,3.46,5.91.72,11.42,4.44,17.18,6.61a21.9,21.9,0,0,0,7.24,1.77c10.78.13,20.72-3.52,30.72-7.78-1.19-.16-2.36-.39-3.54-.47a138.25,138.25,0,0,1-39.21-8.83,27.94,27.94,0,0,0-5.7-1.31c-3.12-.47-5.59.49-7.22,3.44a5.82,5.82,0,0,1-2.55,1.88c-.14.08-1.32-1.33-1.22-1.46A18,18,0,0,1,190,434.8a1.84,1.84,0,0,0,.67-1.61c-1.71.64-3.41,1.36-5.16,1.88a3.85,3.85,0,0,1-2.44,0,2,2,0,0,1-.42-1.85,3.63,3.63,0,0,1,2.24-1c3.28-.22,6.58-.29,9.92-.75a47,47,0,0,0-17.73-6.9,161,161,0,0,0-18.45-1.85c-4.3-.19-8.45,1-11.36,4.59-1.28,1.57-2.73,3.22-1.77,5.71.25.66-.49,1.8-1,2.59-.12.19-1.52-.06-1.57-.26a7.91,7.91,0,0,1-.08-2.83,9.75,9.75,0,0,0,.59-2.23c-2.16,1.55-4.2,3.14-4.94,6-.16.61-1.2,1.14-1.94,1.39-.29.09-1.19-.63-1.25-1a2.6,2.6,0,0,1,.54-2c4.16-3.67,8.4-7.25,13-11.21-5.85.91-11.43,1.6-16.57,4.34a22.39,22.39,0,0,1-3,1.12,9.22,9.22,0,0,1-.61-1.93,12.92,12.92,0,0,1,3-1.23c4-1,7.88-2.07,11.87-2.9,3.06-.62,6.18-1,9.28-1.71-9.41-1.13-18.81-3-28.2.48a3.43,3.43,0,0,1-2.39-.52,1.71,1.71,0,0,1-.21-1.59,4,4,0,0,1,2.21-1c2.17-.05,4.35.15,6.51.23.12-.35.23-.72.33-1.09a26.2,26.2,0,0,1-3.14-1.9,2.54,2.54,0,0,1-1-1.78,2.05,2.05,0,0,1,1.37-1.43,2.11,2.11,0,0,1,1.79.92c1.62,4.46,5.42,4.5,9.22,4.9,6.29.67,12.55,1.65,18.82,2.39,5.67.68,11.35,1.21,18,1.9-3.57-1.84-6.37-3.17-9.06-4.71-8-4.56-16-9.12-23.9-13.83-9.72-5.81-14.35-4.49-21.86,2.37-2.94,2.67-5.11,6.35-7.07,9.9a35.71,35.71,0,0,1-21.1,17.4c-3.53,1.14-6.93,2.6-10.39,3.91-.28-.29-.55-.6-.83-.89a42.84,42.84,0,0,1,2.3-3.95c4-5.33,7.91-10.66,12-15.91,7.38-9.49,17.26-14.87,29-18.05-2-.35-4.06-1.14-6-1-18.1,1.53-33-6-46.6-16.69-5.32-4.17-10-9.2-14.88-13.9a7.82,7.82,0,0,1-2.19-4.25,18.39,18.39,0,0,1,3.25.55c10.28,3.56,20.66,6.86,30.75,10.9,4.38,1.75,8.27,4.85,12.18,7.64,4.67,3.33,9.14,6.92,13.63,10.5,5.73,4.54,12.59,5.36,19.74,5.87-1-.85-1.94-1.67-2.87-2.55-9-8.52-18.17-16.82-26.85-25.62-7.7-7.81-16-14.76-25.58-20-9.39-5.15-22.64-2.08-29.25,6.47A3.77,3.77,0,0,1,48.47,358c-.3.07-1.18-.83-1.11-1.11a3.61,3.61,0,0,1,1.2-2.1c5.59-3.46,10.85-7.61,17.76-8.63-7.36-1.55-14.58-2-21.76.3-.56.19-1.12.85-1.58.78a8.49,8.49,0,0,1-2.21-1c.56-.72,1.07-2,1.67-2.08,5.1-.38,10.23-.49,15.33-.77a6.84,6.84,0,0,0,2-.81c-3.93-.95-7.83-2-11.8-2.78-1.4-.28-2.92.11-4.38,0a3.89,3.89,0,0,1-2.29-.77,2,2,0,0,1,.12-2,3.57,3.57,0,0,1,2.42-.3C48.92,337.91,54,339.2,59,340.45c-1.3-1.41-2.68-2.78-3.9-4.27a3.48,3.48,0,0,1-.83-2.24c0-.44,1.27-1.23,1.62-1.08a3.45,3.45,0,0,1,1.68,1.79,14.23,14.23,0,0,0,10,9.59c9.77,2.5,18.14,7.3,25.93,13.41a3.41,3.41,0,0,0,.8.49c-5.52-8.83-11-18.39-17.32-27.34-2.77-3.91-7-7-11.13-9.64-1.65-1.09-4.72-.46-7,0-3.69.69-7.28,2-10.95,2.83-10.34,2.48-20.56,2.6-30.77-1.12-4.2-1.54-8.8-2-13.22-2.94a13.67,13.67,0,0,1-3.84-1.22c9.07-5.18,18.86-8,29.13-7.5,10,.52,19.92,2.41,29.78,3.69-5.18-4.53-9.15-10.81-16.06-14.24-6.7-3.33-12-8.57-16.34-14.73-2-2.82-4.23-5.5-6.36-8.25A72.42,72.42,0,0,1,9.69,259.27C7.6,253.8,4.61,248.67,2,243.38c-.58-1.17-1.13-2.36-2-4.27,1.72.31,2.84.19,3.55.67C13,246.31,23,252.11,29.82,261.72a74.14,74.14,0,0,1,4.27,6.94q6.63,11.83,13.12,23.77a10.77,10.77,0,0,1,1.36,3.81c.57,5.83,3.8,10,8,13.74a196.77,196.77,0,0,0,16.62,13.69c-1.88-4.76-3.39-9.71-5.74-14.22s-5.59-8.57-8.38-12.86q-11.07-17-22.13-34.1c-.57-.85-1.42-1.53-1.95-2.41a2.67,2.67,0,0,1-.39-2,2.14,2.14,0,0,1,1.76-1,2.2,2.2,0,0,1,1.49,1.36c1.75,8.25,7,14.54,12,21-.79-2.43-1.51-4.88-2.37-7.28s-2-5-2.88-7.5a3.07,3.07,0,0,1,0-2.07c.15-.38,1.24-.83,1.45-.66a3.68,3.68,0,0,1,1.47,1.93c.7,3.32,1.24,6.69,1.82,10.05h1.25c.34-2.57.6-5.16,1.07-7.7A5.88,5.88,0,0,1,53,263.8c.13-.15,1.46.24,1.5.51a4.7,4.7,0,0,1-.13,2.82c-3.27,6-3.88,11.87-.1,17.95,3.22,5.23,6.13,10.65,9.2,16l.87-.42c-1.08-4.7-2.43-9.37-3.19-14.12-1.22-7.59-2.3-15.22-3-22.88a15.4,15.4,0,0,0-4.48-10,35.84,35.84,0,0,0-3.29-3.12c-9.57-7.62-14.74-17.79-17.12-29.55-1.1-5.46-1.86-11-2.82-16.51-.8-4.61-1.69-9.2-2.48-13.81-.22-1.24-.24-2.51-.36-3.77l1-.54A30.35,30.35,0,0,1,31.72,189c7.65,8.71,13.6,18.18,16.17,29.86,2,9.21,5.58,18.07,9,26.9.11-8.09.19-16.18.34-24.27a39.35,39.35,0,0,1,.44-5.42,39.31,39.31,0,0,0-1.87-20.23c-5-13.74-2.54-27.24,4.93-39.55,4.46-7.33,9.88-14.09,14.92-21.06a21.24,21.24,0,0,1,3-2.56,33,33,0,0,1,.36,5.06Q77.19,154.9,75.3,172c-1.23,11.12-5.74,20.85-12.38,29.76a13.75,13.75,0,0,0-2.8,6.88c-.66,10.06-.87,20.15-1.24,30.24l4.38-12c.84-2.22,1.68-4.42,2.54-6.63s1.79-4.49,2.58-6.76c1.73-5,3.38-10,.28-15.18-.25-.43.71-1.57,1.11-2.39.69.59,1.8,1.08,2,1.8a14.45,14.45,0,0,1-.11,3.87l1.13.38c2.29-5.25,4.53-10.51,6.88-15.73a4,4,0,0,1,1.67-1.73c.29-.16,1.4.4,1.43.69a3.37,3.37,0,0,1-.45,2.4c-5.21,5.4-6.71,12.66-9.58,19.32,3.62-4.68,7.21-9.4,10.88-14a3.43,3.43,0,0,1,2.14-1.21c.4,0,1.38,1,1.29,1.42a3.91,3.91,0,0,1-1.4,2,35.14,35.14,0,0,0-4.6,4c4.87-2.68,9.73-5.39,14.62-8a9.34,9.34,0,0,1,2.74-1c.22,0,1,.93.87,1.3-.13.63-.63,1.53-1.15,1.68-14.8,4.24-25.3,13.34-31.41,27.5l-2.59,6.6q-1.92,6.69-3.85,13.4c-2.17,8.52-.71,17-.44,25.56l1,.17c.68-3.11,1.7-6.2,2-9.34.65-8.33,2.93-16.15,7.84-22.86,5.15-7.06,10.86-13.7,16.4-20.46,3.44-4.19,7-8.27,10.55-12.41.56-.66,1.17-1.27,2.25-2.41a13.19,13.19,0,0,1,.36,3c-1.09,6.24-1.61,12.68-3.56,18.65-4.16,12.75-12.86,22.7-21.78,32.34-1.58,1.69-4.18,2.39-6.17,3.74-1.47,1-3.5,2.07-3.93,3.52-1.57,5.16-3.73,10.54-3.52,15.75.39,10.06,3.36,19.79,6.67,29.66,1-5.28,2.1-10.13,2.64-15,.41-3.73.36-7.63-3.62-10a1.68,1.68,0,0,1,1.07-3,2.29,2.29,0,0,1,1.65,1.21,33.18,33.18,0,0,1,1.11,4.4c1-4.71.76-6.21-1-10.66a3.5,3.5,0,0,1,0-2.45,2,2,0,0,1,1.9-.45,3.52,3.52,0,0,1,1,2.23c.14,3.05.12,6.11.14,9.16l1.17,0a9.86,9.86,0,0,1,.6-3.23c.39-.69,1.53-.94,2.34-1.39.2.89.89,2.26.53,2.61-4,4-4.43,9.48-6.06,14.43a26.75,26.75,0,0,0-.61,2.65c-2,9.23-1,17.93,3.9,26.19,4.1,6.88,7.8,14,11.74,20.94a40.05,40.05,0,0,0,2.85,3.93l.86-.45c-.84-2.13-1.53-4.34-2.57-6.37-2-3.75-4.18-7.35-6.12-11.11a23.53,23.53,0,0,1-2.45-6.31c-2.09-11.64-3.16-23.31.06-35C80.47,283,81.56,278,83,272.11c.94,1.51,1.66,2.23,1.87,3.08a50.31,50.31,0,0,1,1.33,6.66,129.25,129.25,0,0,0,10.43,36.44c3.43,7.77,2.46,14.76-3.48,20.86-2.06,2.11-2.32,4.16-1.6,6.92a31.17,31.17,0,0,0,6.9,13.56c5.19,5.69,10.07,11.65,15.37,17.23A136,136,0,0,0,128,389.62q-5.55-9-11.1-18c-3.15-5.13-6.41-10.2-9.44-15.4-1.7-2.92-3.68-5-7.34-5.07a4.66,4.66,0,0,1-2.45-1.29c-.16-.12.29-1.5.51-1.51a7.4,7.4,0,0,1,2.75.39,24.16,24.16,0,0,1,3,1.46c.23-.23.48-.46.71-.7a38,38,0,0,1-2-3.61,4.39,4.39,0,0,1-.21-2.41c.07-.3,1.23-.76,1.46-.59a4,4,0,0,1,1.49,1.94c.45,1.67.63,3.41.92,5.11l1.23-.09c-.07-2.29-.18-4.56-.15-6.85a4.26,4.26,0,0,1,.64-2.4,2.06,2.06,0,0,1,1.93.18,3,3,0,0,1,.33,2.37c-2.5,6.51-1.74,12.66,1.78,18.59a31.14,31.14,0,0,0,3.81,5.7q-1.62-9.72-3.25-19.42c0-.29-.38-.58-.35-.82a6.71,6.71,0,0,1,.57-2.39,1.72,1.72,0,0,1,1.58-.16,4.25,4.25,0,0,1,.79,2.3c0,1.52-.36,3-.55,4.56l1.12.19c.78-3.89,1.55-7.78,2.41-11.65a2.51,2.51,0,0,1,1.17-1.69,2,2,0,0,1,1.85.74,2.38,2.38,0,0,1-.12,2c-5.19,9-6.43,18.62-2.51,28.17,5.59,13.7,13.05,26.28,26.49,33.93,11,6.27,22.18,12.28,33.3,18.37a3.85,3.85,0,0,0,2.83.39c-1.08-1-2.12-1.94-3.23-2.85-7.62-6.23-14.66-13-20.3-21.17a16.28,16.28,0,0,0-3.24-3.12c-8.1-6.52-14.95-14.17-19.46-23.55a77.23,77.23,0,0,1-5.39-15.79c-2-8.36-3.34-16.88-4.81-25.36-.29-1.65.13-3.44.23-5.17,1.38.94,3,1.64,4.11,2.86,14.12,16.34,24.43,34.55,26.56,56.46,1.44,14.77,11.67,23.21,22.12,31.73-1.93-4.26-3.52-8.7-5.84-12.74-7.48-13-8.29-26.2-2.26-39.95,3.66-8.36,6.52-16.94,5.15-26.33-.11-.65.19-1.36,1.19-2.27a36.19,36.19,0,0,1,1.73,3.81c1.77,5.46,3.65,10.89,5.11,16.43,3.78,14.38,1.84,28.18-5.11,41.23-2.7,5.05-3,9.51-.39,14.93,4.73,9.73,12.08,16,22,19.67,6.92,2.54,13.87,5,20.81,7.46l.47-.93a32.61,32.61,0,0,1-3.09-2.21c-4.31-3.76-8.6-7.52-12.8-11.39-4.43-4.07-8.76-8.27-13.12-12.4-.21-.2-.61-.21-.79-.42a5.27,5.27,0,0,1-1.33-2.06c-.06-.38,1-1.41,1.4-1.31a3.82,3.82,0,0,1,2,1.43c1.93,2.38,3.76,4.84,5.64,7.26.44-.3.87-.59,1.31-.87-1.47-2.66-3-5.31-4.37-8a3.83,3.83,0,0,1-.39-2.44,2,2,0,0,1,1.83-.63,4,4,0,0,1,1.28,2.06c1.2,3.95,2.32,7.91,3.48,11.88l1.36-.35c-.59-2.72-1.26-5.43-1.72-8.17a6,6,0,0,1,.47-2.79c.05-.15,1.47-.16,1.6.09a5.31,5.31,0,0,1,.67,2.73c-.81,6.5.58,12.41,5.35,17,8.47,8.07,17.91,14.33,30.22,14.69,5.58.15,11.15.66,16.93.36-1-.39-2-.8-3.05-1.14-10.42-3.46-17.94-10.94-25.32-18.54-7-7.26-14-14.63-20.91-22a35.83,35.83,0,0,1-2.27-3c1.05-.31,1.64-.71,2.11-.59,13,3,25.34,7.35,34.14,18.14,3.82,4.66,7.11,9.75,10.66,14.63,3.31,4.54,6.8,8.95,12.18,11.19a13.66,13.66,0,0,0,5.62,1.2c13.48-.74,26.59-3.65,39.48-7.58a16.41,16.41,0,0,0,2.15-1.16c-17.84-3.26-34.87-7.09-49.2-17.57-7.59-5.54-14.21-12.4-20.86-19.41a27,27,0,0,1,2.85.31c7.4,1.52,14.76,3.23,22.19,4.56,11.18,2,20.91,6.53,29,14.68,4.35,4.37,9.27,8.19,14,12.14,4.22,3.49,8.54,4.24,14.16,2.3,16.77-5.79,33-12.58,47.65-22.73a31.62,31.62,0,0,0,4.45-3.77c-9.21,4.37-18.9,7-28.79,9.05-3,.63-5.79,2.63-8.83,3.4-7.41,1.87-14.91,3.42-22.38,5a2.53,2.53,0,0,1-1.92-.78c-.31-.3-.36-1.43-.11-1.61a3.26,3.26,0,0,1,2.28-.81c8,2.29,15-1.26,22.27-3.3,0-.33,0-.66-.08-1-4.55.16-9.09.35-13.65.45a4,4,0,0,1-2.39-.58,2,2,0,0,1,.17-1.93,4.1,4.1,0,0,1,2.4-.29,79.07,79.07,0,0,0,11.42.88c-6.81-2-13.46-4.85-20.81-3.54a3.68,3.68,0,0,1-2.3-.78,1.72,1.72,0,0,1,0-1.59,3.7,3.7,0,0,1,2.33-.6c8.56,1.74,17.09,3.63,25.65,5.36,4.89,1,9.48-.49,14.7-1.94L352,407a47.65,47.65,0,0,1-5-1.6,3.39,3.39,0,0,1-1.4-1.94c-.11-.28.61-1.24.91-1.22a4.42,4.42,0,0,1,2.29.77c1.26.93,2.38,2.06,3.55,3.12,8.42,2.78,15.63-1.07,23-4.22,7.82-3.34,13.89-9,19.71-14.94a206.35,206.35,0,0,0,20.22-23.78c-6.07,4.95-11.79,9.8-17.71,14.4-10.56,8.21-22.87,12-35.89,13.94-1.91.29-4,.58-5.57,1.61-11.56,7.66-24.29,8.44-37.49,6.67-3.74-.5-7.43-1.41-11.16-1.89-8.07-1.06-16.16-2-24.23-2.95-1-.12-2.05-.19-3-.29-.06-.48-.21-.93-.11-1C290.21,387,301.18,382,313.66,382c5.81,0,11.67,1.23,17.42,2.33a134.47,134.47,0,0,1,14.46,3.84c10.61,3.3,20.93,1.73,31.1-1.74a81.31,81.31,0,0,0,13.22-6.16c-13,1.21-25.4-1.62-37.82-4.52s-24.52-6.75-35.72-12.91c0-.37.09-.73.14-1.1a21.73,21.73,0,0,1,3.28-.86c8.88-.76,17.75-1.52,26.64-2.17a38.06,38.06,0,0,1,21.8,4.88c5.27,3,10.39,6.14,15.58,9.25,10,6,10.13,5.9,19.15-1.43,11.91-9.67,21.09-21.51,28.54-34.8.42-.73.72-1.54,1.49-3.23-7.1,6.22-13.52,11.63-19.68,17.31-2.64,2.44-5,5.31-4.2,9.49a2.12,2.12,0,0,1-1.06,1.73,2.05,2.05,0,0,1-1.91-.58,2.43,2.43,0,0,1,0-2.05,30.4,30.4,0,0,1,1.69-3.25l-.95-.94c-2.69,1.72-5.35,3.49-8.09,5.11a6,6,0,0,1-2.7.62c-.21,0-.77-1.32-.63-1.46a5.69,5.69,0,0,1,2.35-1.58c5-1.17,8.77-4.28,12.69-7.22-4.44,1.46-8.85,3.11-13.37,4.33A94.85,94.85,0,0,1,385.55,357c-.66.09-1.48-1-2.22-1.53.73-.55,1.49-1.63,2.2-1.6,9.43.4,13-.17,21.75-3.94-3.29-.55-5.87-.92-8.41-1.44a6.11,6.11,0,0,1-2.61-1.19c-.23-.19.26-1.86.46-1.87a4.75,4.75,0,0,1,2.77.5c3.65,2.5,7.79,3.27,11.64,1.62,11.12-4.8,20.33-12.54,25.51-23.34,3.83-8,5-17.31,7.25-26.06.43-1.67.55-3.41.82-5.11l1.37.15"></path><path class="cls-2" d="M129.87,197.65q-4.8,0-4.83-4.62c0-3.37,1.56-5.07,4.75-5.09s4.75,1.64,4.78,5c0,3.11-1.54,4.68-4.7,4.7"></path><path class="cls-2" d="M147,197.51q-4.92,0-4.95-4.63c0-3.36,1.59-5.06,4.87-5.08s4.81,1.64,4.84,5q0,4.68-4.76,4.71"></path><path class="cls-2" d="M286.94,274.87h-1.2q-9.6.08-13.87-6.7-3.84-6-3.94-18.45l0-3q-.31-15.09-8.15-24.42-8.55-10.14-23.75-10t-23.45,10.41q-7.87,9.74-7.74,25.31c0,.92,0,1.85.09,2.77.43,6.18.47,13.18-3.13,18.55-1.67,2.49-4.14,4.73-7.3,4.73-1.9,0-3.85-1-5.84-3.08a46.34,46.34,0,0,1-6-8.14q-3.09-5.07-6.39-11.55t-6.75-13.17c-2.32-4.46-4.7-8.86-7.18-13.18a94.55,94.55,0,0,0-7.77-11.54,41.22,41.22,0,0,0-8.39-8.14,15.46,15.46,0,0,0-9-3.08,13.53,13.53,0,0,0-7.49,2.07,12.84,12.84,0,0,0-4.39,4.45l.75.53a6.54,6.54,0,0,1,.46-1,5.4,5.4,0,0,1,1.17-1.41,6.94,6.94,0,0,1,2-1.19,7.78,7.78,0,0,1,2.93-.49,6.36,6.36,0,0,1,3.81,1.41,24.58,24.58,0,0,1,4,3.87,29.14,29.14,0,0,1,2.35,4.1,11,11,0,0,1,1.06,4.65,13.75,13.75,0,0,1-3.12,8.65,44.76,44.76,0,0,1-7.84,7.68q-4.71,3.69-10.18,7.26a120,120,0,0,0-10.17,7.41,42.57,42.57,0,0,0-7.84,8.17,15.69,15.69,0,0,0-3.12,9.4,9.67,9.67,0,0,0,1.6,5.45,12.79,12.79,0,0,0,4.31,4,22.51,22.51,0,0,0,6.36,2.49,33.84,33.84,0,0,0,7.7.85,41.73,41.73,0,0,0,12.25-2,34.47,34.47,0,0,0,11.45-6.06A31.91,31.91,0,0,0,153.61,262a33.08,33.08,0,0,0,3.27-15.24,30.7,30.7,0,0,0-.55-5.77,46.92,46.92,0,0,0-1.38-5.46q3.83,7.66,8,15.43a127.87,127.87,0,0,0,8.61,14,53.17,53.17,0,0,0,9.25,10.2,15.5,15.5,0,0,0,10,3.92c2.94,0,5.58-1.36,8.09-2.8,3.72-2.15,8-5.29,10.15-9.12a28.7,28.7,0,0,0,5.23,7.08l1.72,1.51q8.13,6.62,20.62,6.51c8.41-.06,15.3-2.36,20.65-6.85l1.81-1.66a27.89,27.89,0,0,0,5-7.11,16.79,16.79,0,0,0,2.36,3.26q6,6.51,19.05,6.52H287ZM152.59,260a24.81,24.81,0,0,1-5.66,8.86,21.55,21.55,0,0,1-7.85,5,25.11,25.11,0,0,1-8.59,1.58,24.6,24.6,0,0,1-6.52-.85,18.46,18.46,0,0,1-5.52-2.48,12.38,12.38,0,0,1-3.78-3.89,9.59,9.59,0,0,1-1.39-5.06,15.44,15.44,0,0,1,2.43-8.54,35.94,35.94,0,0,1,6-7.09,99.81,99.81,0,0,1,7.84-6.44,96.2,96.2,0,0,0,7.84-6.43,36.58,36.58,0,0,0,6-7.09,15.31,15.31,0,0,0,2.43-8.43,1.39,1.39,0,0,0-.12-.65,73.27,73.27,0,0,1,6.45,13.5,43.88,43.88,0,0,1,2.51,14.79A35.62,35.62,0,0,1,152.59,260m84,20.92q-23,.19-24.28-29.08v-1.25h-.07V248.8q-.13-16,6.1-25.29,6.34-9.63,17.71-9.74A20.42,20.42,0,0,1,254,223q6.38,9.1,6.52,24.93.25,32.81-23.9,33"></path><path class="cls-2" d="M290,281.75a4.47,4.47,0,0,1,1.33,3.24,4.17,4.17,0,0,1-1.28,3.07,4.24,4.24,0,0,1-3.11,1.32,4.4,4.4,0,0,1-3.26-1.27,4.21,4.21,0,0,1-1.32-3,4.44,4.44,0,0,1,4.51-4.59,4.27,4.27,0,0,1,3.13,1.27m15.6-70.07a6.5,6.5,0,0,1,5.2,2.22,10.62,10.62,0,0,1,1.94,6.61l.25,29.22q.11,13.44-5.64,19.86-5.88,6.62-18.94,6.84l-2.08,0v-1.58h1.83q9.58-.09,13.76-6.93,3.74-6.09,3.63-18.52l-.32-37.73Zm-3.36,69.91a4.44,4.44,0,0,1,1.32,3.17,4.33,4.33,0,0,1-1.27,3.2,4.38,4.38,0,0,1-3.23,1.32A4.16,4.16,0,0,1,296,288a4.31,4.31,0,0,1-1.32-3.17,4.49,4.49,0,0,1,1.26-3.2,4.1,4.1,0,0,1,3.05-1.38,4.3,4.3,0,0,1,3.26,1.33"></path><path class="cls-2" d="M336,239.25l-.23-27.89H336a6.48,6.48,0,0,1,5.19,2.36,10.68,10.68,0,0,1,2,6.73l.24,28.65q.11,12.42,3.94,18.45,4.29,6.78,13.88,6.7h1.2v1.57l-1.45,0q-12.62,0-18.67-6.09a43.4,43.4,0,0,1-1.59,6.19l-.61,1.65a3.24,3.24,0,0,0-.25.76,31.12,31.12,0,0,1-9.86,13.27,33,33,0,0,1-7.28,4.29c-1.34.56-2.77,1.07-4.28,1.55a19.75,19.75,0,0,1-7.75.76,13.65,13.65,0,0,1-5.19-1.35,3.68,3.68,0,0,1-2-3.26,2.89,2.89,0,0,1,1.17-2.35,3,3,0,0,1,2.46-.71,3.28,3.28,0,0,1,2.28,1.24,3.21,3.21,0,0,1,.65,2.52,3.16,3.16,0,0,1-1.55,2.35,17,17,0,0,0,8.76-.51,25.59,25.59,0,0,0,11.36-7.42q7.68-9.15,7.49-32.81l0-3.66c-.05-.88-.08-1.79-.09-2.71L336,239.25Z"></path><path class="cls-2" d="M340.82,199a4.59,4.59,0,0,1,.06,6.38,4.35,4.35,0,0,1-3.18,1.32,4.23,4.23,0,0,1-3.13-1.27,4.58,4.58,0,0,1-.06-6.37,4.36,4.36,0,0,1,6.31-.06"></path><path class="cls-2" d="M366.91,239.56q.1,12.67,9.21,23.08A42.61,42.61,0,0,0,391.55,274l43.66-.36v1.58l-73.56.61,0-1.58L388,274a43.2,43.2,0,0,1-14.93-12.3,35.83,35.83,0,0,1-7.89-22.15q-.12-15.19,7.26-22,7.2-6.5,22.85-6.62l16.35-.14q23,.18,23.19,19.11.06,7.51-3.88,11.77a12,12,0,0,1-9.25,3.8,17.2,17.2,0,0,1-3.5-.31l-.26-.06a5.42,5.42,0,0,1-1.79-.65,2.81,2.81,0,0,1-.69-.6A2.69,2.69,0,0,1,415,243l.44,0h.82a.08.08,0,0,1,.05,0,2,2,0,0,0,1,.61,9.22,9.22,0,0,0,1.16.25,19.9,19.9,0,0,0,3.18.19,11,11,0,0,0,8.37-3.42q3.5-3.63,3.44-10.75-.06-6.63-6.32-9.16-4.76-2-14.78-1.9l-16.6.14q-14.32.12-21.16,4.53-7.85,4.92-7.75,16"></path></g></g></svg>