<?xml version="1.0" standalone="no"?>
<!DOCTYPE svg PUBLIC "-//W3C//DTD SVG 20010904//EN"
 "http://www.w3.org/TR/2001/REC-SVG-20010904/DTD/svg10.dtd">
<svg version="1.0" xmlns="http://www.w3.org/2000/svg"
 width="900.000000pt" height="900.000000pt" viewBox="0 0 900.000000 900.000000"
 preserveAspectRatio="xMidYMid meet">

<g transform="translate(0.000000,900.000000) scale(0.100000,-0.100000)"
fill="#000000" stroke="none">
<path d="M4355 7930 c-361 -23 -698 -115 -1040 -285 -301 -149 -533 -315 -770
-550 -200 -199 -382 -441 -509 -677 -48 -89 -49 -95 -18 -80 9 5 35 17 57 28
32 15 55 42 113 129 218 329 449 579 717 779 149 111 234 164 405 251 422 214
801 309 1230 308 281 0 519 -37 790 -125 649 -210 1153 -602 1521 -1185 44
-70 98 -148 119 -173 42 -50 116 -107 126 -97 10 10 -108 238 -185 362 -154
246 -405 526 -631 705 -554 440 -1233 655 -1925 610z"/>
<path d="M4752 7414 c-12 -8 -43 -21 -70 -29 -55 -17 -159 -90 -142 -100 7 -4
-2 -21 -25 -46 -19 -21 -35 -47 -35 -58 0 -27 44 -89 106 -148 50 -48 54 -55
54 -97 0 -25 3 -45 8 -44 14 5 80 -43 106 -77 15 -19 33 -35 41 -35 8 0 30 14
48 30 19 17 37 30 41 30 3 0 15 -18 26 -40 16 -31 18 -45 10 -60 -9 -16 -15
-18 -30 -10 -10 5 -21 10 -24 10 -2 0 -6 -33 -9 -72 -3 -44 -15 -102 -31 -146
-40 -108 -47 -197 -40 -487 7 -258 6 -260 -15 -287 -20 -25 -29 -28 -87 -28
-52 0 -74 -5 -109 -26 -73 -43 -104 -8 -92 105 8 73 29 132 74 205 24 40 38
75 41 108 4 47 3 49 -45 96 -27 26 -77 71 -111 100 -84 72 -95 97 -90 191 7
119 29 148 123 168 l40 8 3 82 c2 72 0 87 -19 112 -14 19 -24 52 -28 96 -7 61
-11 71 -44 102 -21 18 -51 36 -67 40 -17 3 -30 12 -30 19 0 16 -9 17 -29 5
-10 -6 -25 -4 -42 5 -36 18 -39 18 -39 -7 0 -21 0 -21 -20 2 l-19 24 -1 -37
c0 -21 -4 -38 -10 -38 -5 0 -10 11 -10 25 0 29 0 28 -36 15 -24 -9 -31 -7 -56
17 l-28 27 0 -59 c0 -46 -3 -56 -12 -47 -19 19 -27 14 -34 -23 -7 -39 -8 -39
-34 -25 -25 14 -39 -6 -52 -79 -10 -53 -13 -59 -29 -50 -33 17 -37 10 -23 -37
l13 -45 -34 2 c-42 4 -72 -18 -37 -27 29 -8 28 -22 -3 -30 -37 -9 -30 -24 13
-25 37 0 32 -6 -21 -23 -16 -5 -17 -7 -2 -30 l16 -24 34 36 c41 45 48 24 10
-32 -16 -24 -25 -51 -25 -76 0 -34 -11 -52 -80 -139 -276 -342 -543 -447 -924
-362 -147 33 -289 54 -332 49 -40 -4 403 -126 497 -137 88 -10 190 1 279 29
88 27 94 25 32 -11 -29 -17 -51 -33 -48 -36 8 -8 139 49 196 85 111 71 223
196 325 365 26 43 49 76 52 73 7 -7 -105 -225 -156 -301 -97 -147 -266 -291
-406 -346 -87 -34 -247 -32 -360 3 -244 77 -421 128 -434 126 -18 -4 341 -178
429 -209 88 -30 230 -31 312 -1 96 35 156 79 348 252 96 86 93 70 -9 -46 -103
-119 -224 -213 -366 -284 -244 -121 -443 -142 -815 -88 -186 28 -421 31 -496
6 -95 -30 -162 -70 -253 -150 -50 -43 -91 -73 -91 -66 1 30 61 162 92 202 44
58 79 81 191 126 51 20 140 63 198 94 108 60 258 156 259 167 0 9 -65 19 -120
19 -105 0 -251 -61 -348 -146 -28 -25 -52 -42 -52 -38 0 4 25 40 55 80 67 87
127 130 259 184 130 54 228 104 298 151 76 52 188 148 188 161 0 16 -215 1
-304 -22 -147 -37 -272 -117 -352 -224 -44 -58 -195 -306 -295 -484 l-46 -83
-5 88 c-7 104 -30 164 -105 264 -73 98 -133 248 -133 331 0 53 -17 28 -36 -54
-13 -55 -19 -120 -19 -193 0 -105 2 -113 33 -176 19 -37 63 -98 98 -137 118
-129 129 -195 71 -397 -52 -180 -69 -268 -73 -395 l-4 -115 30 135 c57 262 88
339 169 420 56 55 115 88 221 122 62 19 96 23 200 23 112 0 139 -4 260 -37
169 -46 251 -58 383 -58 228 0 462 72 666 204 40 25 74 46 77 46 20 0 -116
-97 -187 -135 -257 -134 -576 -180 -968 -141 -90 9 -166 15 -168 12 -14 -14
242 -63 384 -75 349 -28 704 80 929 283 101 91 59 32 -78 -110 -140 -144 -252
-232 -388 -303 -129 -67 -230 -101 -540 -181 -298 -77 -377 -103 -455 -156
-78 -51 -95 -79 -95 -153 0 -62 7 -73 31 -45 18 22 115 69 180 88 29 8 185 40
345 71 435 83 525 109 739 215 146 72 282 166 390 269 33 31 71 66 84 76 l24
20 -17 -34 c-96 -187 -303 -418 -478 -534 -230 -153 -520 -247 -807 -264 -171
-9 -105 -25 109 -26 381 -1 649 97 888 327 298 286 549 735 662 1186 16 63 36
155 44 204 10 59 22 96 35 110 21 22 20 56 -3 85 -9 11 -5 12 22 7 40 -9 42 5
7 56 -31 46 -32 55 0 34 32 -21 35 -20 35 9 0 14 -9 30 -20 37 -23 15 -26 28
-6 28 8 0 26 14 41 31 24 29 25 33 10 49 -12 14 -13 20 -4 26 7 4 18 -1 26
-12 14 -18 13 -27 -3 -105 -5 -20 0 -29 20 -43 37 -24 32 -45 -23 -98 -65 -63
-89 -123 -73 -184 10 -38 9 -50 -8 -94 -26 -67 -25 -92 5 -120 l25 -23 -16 47
c-16 48 -16 48 9 73 14 14 31 23 39 21 8 -4 33 -97 67 -246 l54 -240 -17 -45
c-9 -24 -42 -73 -72 -108 -131 -149 -252 -325 -323 -467 -23 -45 -109 -229
-192 -409 -82 -181 -160 -338 -171 -351 -12 -12 -56 -33 -98 -46 -262 -83
-484 -68 -776 54 -54 22 -99 38 -101 36 -8 -7 163 -116 232 -147 127 -57 203
-72 370 -72 119 0 167 4 230 21 44 11 81 19 82 18 1 -1 -14 -33 -34 -71 -159
-310 -327 -517 -525 -649 l-83 -56 -26 78 c-33 100 -61 153 -106 203 -41 45
-71 63 -123 74 l-35 7 27 -28 c62 -66 72 -144 37 -297 -16 -70 -20 -115 -17
-192 5 -122 29 -180 112 -278 31 -37 55 -67 53 -67 -13 0 -150 51 -185 69 -57
29 -114 82 -151 139 l-30 47 15 135 c25 211 29 401 10 490 -19 91 -90 237
-146 303 -23 26 -45 47 -48 47 -4 0 -8 -33 -8 -73 -1 -39 -12 -121 -25 -182
-32 -148 -32 -353 -1 -466 28 -103 82 -215 143 -295 28 -37 48 -68 46 -71 -3
-2 -35 17 -73 42 -175 120 -377 191 -613 215 -137 13 -281 13 -281 -1 0 -23
216 -225 280 -262 112 -65 184 -82 345 -82 148 0 366 23 343 36 -7 4 -90 26
-183 49 -178 43 -323 86 -339 101 -15 14 -5 12 187 -37 195 -50 371 -107 470
-153 l62 -29 -75 -1 c-267 -3 -650 -90 -715 -161 -15 -16 -8 -16 61 5 92 29
247 61 364 75 100 12 502 13 480 1 -8 -4 -94 -14 -190 -20 -96 -7 -209 -17
-250 -22 -86 -12 -251 -48 -262 -58 -4 -4 50 -24 120 -46 205 -63 325 -60 472
11 92 44 370 205 370 215 0 4 -20 10 -44 13 -24 4 -50 15 -59 24 -10 12 -20
73 -32 200 -10 100 -15 185 -12 188 3 3 24 -34 46 -82 72 -154 176 -269 304
-336 l47 -26 -67 -7 c-102 -11 -204 -47 -348 -126 -236 -128 -476 -230 -639
-271 -64 -16 -101 -19 -190 -16 -167 7 -233 39 -428 206 -60 51 -88 81 -88 96
0 32 44 118 76 148 16 15 49 36 73 46 40 19 42 21 23 31 -11 6 -37 11 -57 11
-69 0 -123 -45 -172 -144 l-30 -59 -33 96 c-62 179 -92 212 -198 212 -53 0
-73 -5 -98 -22 -36 -26 -60 -71 -69 -129 l-7 -39 89 0 c76 0 96 -4 143 -27 30
-15 73 -43 95 -63 l40 -34 -201 -1 c-110 0 -227 5 -260 11 -129 24 -233 103
-288 219 -26 56 -31 76 -30 145 0 68 4 89 29 138 54 108 153 173 253 165 71
-6 102 -37 102 -101 -1 -69 -31 -122 -87 -151 l-48 -25 39 -1 c110 -1 188 134
141 247 l-15 36 54 -7 c76 -9 150 -34 220 -77 34 -20 63 -35 65 -33 7 7 -78
91 -130 130 -110 81 -224 119 -354 119 -77 -1 -99 -5 -151 -29 -77 -34 -144
-103 -181 -181 -26 -55 -28 -70 -28 -175 0 -96 4 -124 23 -172 54 -134 170
-246 310 -300 45 -17 82 -36 82 -41 0 -5 -8 -21 -19 -35 -88 -126 -114 -264
-69 -363 46 -99 119 -150 226 -157 142 -10 248 88 222 205 -9 37 -58 93 -82
93 -6 0 1 -9 15 -21 30 -23 51 -86 41 -124 -3 -13 -22 -39 -42 -56 -32 -28
-40 -31 -89 -27 -127 11 -209 154 -168 295 13 47 28 69 74 114 67 65 125 89
218 89 63 0 130 -20 145 -43 4 -7 8 -39 8 -72 1 -206 140 -395 351 -480 l66
-26 63 -117 c75 -140 114 -196 182 -257 86 -77 178 -116 274 -116 65 0 120 17
142 44 12 14 10 15 -25 5 -130 -36 -293 38 -417 188 -57 70 -144 226 -128 232
9 3 337 -94 356 -106 5 -2 -2 -13 -14 -22 l-24 -18 60 -13 c81 -19 285 -17
347 4 26 8 47 13 47 11 0 -3 -21 -28 -47 -56 l-48 -51 45 7 c82 13 192 46 268
81 41 20 77 34 79 31 2 -2 -14 -25 -36 -52 -22 -26 -39 -50 -36 -52 11 -11
177 83 229 130 52 46 59 50 53 27 -4 -14 -4 -29 0 -33 4 -4 58 44 120 106 62
62 113 107 113 100 0 -24 17 -10 110 98 52 60 99 109 103 109 4 1 19 -11 32
-26 l23 -28 -24 -41 c-13 -22 -24 -52 -24 -65 0 -46 -40 -77 -200 -156 l-105
-52 94 -1 c55 0 91 -4 85 -9 -5 -5 -85 -37 -179 -72 l-170 -64 85 -5 85 -5
-60 -36 c-95 -58 -245 -131 -300 -145 -27 -8 -80 -14 -116 -14 -82 0 -168 -40
-225 -103 l-38 -42 39 -6 c48 -8 155 5 210 24 22 8 98 45 168 82 71 36 131 64
134 61 3 -2 -11 -19 -32 -37 -68 -60 -103 -169 -90 -283 l8 -61 44 49 c60 67
90 129 121 255 l27 106 84 67 c47 37 86 66 88 64 2 -1 -10 -32 -27 -67 -39
-84 -52 -155 -40 -218 11 -60 38 -127 47 -118 9 10 52 113 75 182 16 49 19 77
15 155 -6 110 5 146 51 179 17 11 32 21 35 21 2 0 7 -33 10 -72 5 -54 15 -90
41 -143 35 -70 119 -165 133 -151 5 4 8 58 8 119 0 106 -2 116 -33 181 -18 39
-48 88 -67 111 l-33 41 25 32 c13 18 29 32 35 32 5 0 56 -25 113 -56 l103 -56
-23 -69 c-13 -38 -20 -69 -16 -69 4 0 25 18 46 41 22 23 75 68 118 101 88 67
85 76 23 -71 -15 -35 -25 -65 -23 -68 3 -2 37 9 77 26 92 39 109 39 45 0 -76
-48 -123 -97 -145 -156 -19 -52 -38 -183 -26 -183 3 0 38 27 77 60 72 60 217
156 224 148 3 -2 -46 -40 -107 -84 -171 -121 -187 -168 -139 -414 20 -102 56
-210 70 -210 4 0 20 14 37 31 16 17 61 53 100 80 39 26 88 67 109 91 29 33 36
38 32 21 -8 -34 6 -28 59 27 62 63 100 130 116 199 l12 54 11 -39 12 -39 29
60 c27 56 29 68 29 180 0 66 4 126 8 133 15 23 27 1 27 -49 0 -28 5 -82 11
-122 17 -111 79 -235 79 -158 0 45 17 47 25 2 15 -87 106 -229 168 -263 18 -9
19 -8 14 13 -5 20 0 17 25 -14 17 -21 60 -59 97 -84 36 -26 85 -62 108 -81
l42 -33 15 23 c39 59 76 214 76 317 0 140 -42 210 -174 296 -81 52 -131 96
-94 82 10 -3 81 -54 158 -112 76 -58 142 -105 145 -105 11 0 -7 113 -25 162
-26 70 -71 121 -140 157 -66 35 -82 61 -22 35 80 -34 132 -54 132 -50 0 3 -12
32 -26 66 -15 33 -24 63 -20 67 10 10 51 -16 142 -89 46 -37 84 -65 84 -61 0
3 -15 34 -34 68 -19 33 -32 66 -28 72 4 6 26 20 49 32 41 20 73 63 73 95 0 8
5 18 11 22 17 10 98 -85 99 -115 0 -13 -13 -47 -29 -75 -50 -89 -64 -147 -59
-252 2 -51 7 -96 10 -100 21 -20 118 99 144 178 10 29 18 83 18 120 1 38 3 68
6 68 3 0 23 -17 43 -38 45 -46 60 -91 51 -155 -9 -71 12 -161 61 -263 l43 -89
21 45 c32 69 28 140 -14 256 -19 54 -33 100 -30 102 5 6 62 -34 103 -72 42
-38 64 -82 87 -166 28 -100 69 -184 116 -235 50 -54 57 -49 58 47 1 85 -17
152 -55 208 -19 28 -32 50 -30 50 2 0 68 -31 145 -69 95 -46 163 -73 207 -80
64 -12 164 -6 164 10 0 15 -83 78 -136 103 -32 15 -87 30 -141 36 -110 14
-173 37 -343 125 l-135 70 80 5 c93 6 101 0 -115 80 -80 29 -149 58 -155 63
-6 6 16 8 63 4 39 -3 72 -4 72 -2 0 2 -33 23 -72 46 -150 86 -238 144 -244
162 -5 17 52 128 66 127 3 -1 21 -21 40 -46 19 -24 59 -68 89 -97 46 -44 53
-48 48 -27 -5 24 -5 24 16 -5 48 -65 130 -143 177 -169 l51 -28 -7 29 -7 28
39 -37 c51 -48 126 -90 214 -122 39 -14 74 -26 78 -26 4 0 -17 21 -46 46 -29
26 -51 48 -48 51 2 3 91 -23 196 -57 106 -34 195 -58 198 -55 4 4 -13 25 -36
47 -24 22 -42 41 -40 43 2 1 32 -2 68 -7 77 -11 232 -4 310 15 l55 14 -27 13
c-16 7 -28 16 -28 19 0 10 360 108 360 98 0 -5 -18 -43 -40 -85 -73 -140 -164
-234 -290 -299 -49 -25 -65 -28 -151 -28 -95 0 -96 0 -70 -17 70 -46 172 -43
274 8 137 69 229 170 313 342 31 62 63 116 72 119 9 3 55 24 102 46 188 89
300 263 300 468 l0 60 47 21 c96 43 261 8 341 -73 80 -80 101 -198 52 -294
-71 -138 -248 -156 -290 -29 -15 44 -8 73 27 116 27 32 28 33 3 17 -43 -28
-63 -65 -63 -112 2 -106 87 -178 210 -176 104 1 189 51 238 140 27 48 30 63
30 139 0 77 -3 91 -33 146 -18 33 -49 77 -69 98 -20 20 -34 38 -32 40 2 2 36
13 74 24 178 53 316 202 355 383 20 90 9 213 -24 279 -106 212 -357 270 -605
140 -72 -38 -221 -152 -221 -170 0 -5 24 5 53 21 65 36 154 66 230 77 57 9 58
9 52 -12 -3 -11 -8 -48 -11 -81 -4 -50 -1 -66 18 -100 13 -22 39 -50 57 -62
34 -23 91 -31 91 -13 0 6 -6 10 -14 10 -21 0 -74 47 -91 81 -29 54 -12 129 37
163 58 41 193 3 259 -72 58 -66 84 -136 83 -227 0 -67 -5 -89 -28 -134 -41
-79 -108 -146 -187 -185 -107 -54 -159 -61 -325 -46 -78 7 -164 10 -190 7
l-49 -6 37 32 c20 19 63 46 95 63 52 26 67 29 156 29 62 0 97 4 97 11 0 38
-34 114 -65 144 -31 30 -43 35 -99 38 -104 7 -144 -24 -201 -158 -20 -47 -43
-101 -52 -120 l-15 -35 -19 50 c-45 119 -137 178 -225 145 l-27 -11 53 -26
c79 -39 144 -144 126 -205 -9 -29 -153 -156 -231 -203 -103 -62 -174 -80 -310
-80 -197 1 -337 49 -740 254 -239 122 -319 151 -429 154 -31 1 -56 4 -55 7 0
3 25 21 56 40 78 49 139 120 223 259 40 67 77 124 82 127 5 3 7 -81 6 -188
l-3 -193 -65 -10 -65 -11 209 -118 c115 -66 236 -127 268 -138 95 -29 189 -24
361 19 81 21 147 40 147 44 0 8 -131 44 -215 58 -33 6 -156 20 -274 31 -118
11 -216 22 -219 25 -10 10 388 5 486 -6 123 -13 255 -40 357 -73 43 -14 81
-24 82 -22 6 6 -90 64 -132 80 -92 35 -215 55 -608 101 -53 6 -57 8 -40 20 10
8 43 20 73 27 30 6 60 17 65 24 13 15 533 159 542 150 13 -12 -9 -19 -271 -90
-141 -38 -255 -71 -253 -72 9 -9 259 -34 342 -34 175 0 331 54 463 161 66 53
162 165 162 188 0 20 -292 8 -420 -18 -171 -34 -346 -105 -477 -194 -29 -20
-53 -34 -53 -32 0 3 25 43 56 90 104 159 138 275 137 470 0 98 -5 156 -23 235
-35 163 -40 198 -31 248 l9 47 -55 -60 c-60 -66 -132 -203 -154 -295 -18 -74
-15 -265 5 -365 20 -101 31 -232 22 -278 -10 -53 -93 -140 -169 -176 -63 -30
-167 -64 -167 -55 0 3 20 32 46 65 106 138 122 228 80 452 -14 76 -26 150 -26
165 0 46 19 98 46 127 14 15 24 29 22 30 -2 2 -25 -5 -53 -16 -101 -38 -159
-113 -194 -251 -17 -66 -21 -73 -45 -76 -54 -7 -213 61 -331 141 -62 42 -195
164 -195 179 0 4 78 8 173 8 96 0 249 3 340 7 154 6 192 13 135 26 -13 2 -57
12 -98 21 -47 11 -184 22 -370 31 l-295 14 -28 33 c-31 36 -113 196 -123 240
l-6 28 83 -39 c112 -52 184 -71 304 -78 112 -6 221 11 330 52 65 24 527 246
522 251 -1 1 -111 -31 -243 -71 -306 -93 -372 -107 -509 -107 -129 0 -226 22
-331 75 -87 44 -190 121 -208 156 -14 26 -36 459 -36 694 l0 87 97 45 c53 25
98 47 100 48 1 2 -18 52 -43 113 -25 60 -57 152 -71 204 -25 87 -27 110 -26
285 0 105 7 260 16 345 36 330 13 451 -109 585 -25 28 -57 71 -70 97 -13 26
-28 49 -34 53 -13 8 -40 -7 -125 -68 -72 -51 -69 -43 12 44 l44 45 -30 70
c-19 44 -26 71 -19 75 13 8 1 150 -15 188 -48 113 -208 189 -285 135z m-555
-431 c40 -103 39 -101 6 -70 -16 15 -32 27 -35 27 -3 0 0 -21 8 -46 12 -42 12
-45 -4 -40 -9 2 -45 12 -79 22 -35 9 -63 20 -63 24 0 18 30 103 41 116 10 13
16 11 42 -13 23 -21 28 -23 23 -9 -7 20 9 46 28 46 6 0 21 -26 33 -57z m-139
-159 c-9 -9 -24 -14 -33 -11 -14 6 -14 9 1 32 15 24 19 25 33 11 14 -15 14
-18 -1 -32z m-68 -39 c0 -23 2 -24 51 -18 50 6 51 5 40 -15 -14 -27 -14 -28 5
-47 15 -15 14 -19 -17 -51 -18 -19 -38 -34 -45 -34 -7 0 -21 16 -33 35 -17 30
-25 34 -45 29 -21 -5 -26 -2 -32 20 -5 20 1 34 25 61 17 20 31 40 31 46 0 6 5
7 10 4 6 -3 10 -17 10 -30z m1004 -240 c9 -13 16 -31 16 -40 0 -11 8 -15 27
-13 26 3 27 1 24 -37 -1 -22 -5 -42 -7 -44 -7 -8 -53 29 -59 49 -3 11 -14 20
-24 20 -9 0 -22 5 -29 12 -13 13 -16 60 -5 71 14 15 41 6 57 -18z m-29 -99
c40 -17 47 -52 16 -80 -17 -15 -19 -15 -25 -1 -3 9 -6 27 -6 40 0 13 -10 31
-22 39 -28 20 -8 21 37 2z m-994 -287 c-43 -275 -288 -670 -527 -851 -28 -21
-54 -38 -59 -38 -4 0 32 42 82 93 210 217 356 469 497 861 14 39 17 5 7 -65z
m835 -815 c13 -168 14 -176 38 -195 14 -11 30 -37 35 -57 15 -56 39 -172 35
-172 -4 0 -314 516 -314 523 0 2 21 2 48 0 65 -6 98 9 117 53 8 20 18 34 22
31 3 -4 12 -86 19 -183z m-309 -1276 c61 -64 86 -120 91 -209 5 -84 -19 -194
-41 -186 -22 7 -87 101 -104 152 -27 74 -22 285 5 285 4 0 26 -19 49 -42z
m417 -34 c-9 -57 -37 -164 -44 -164 -13 0 -23 66 -17 107 7 38 34 76 51 69 6
-2 10 -7 10 -12z m66 -33 c0 -10 -11 -28 -25 -41 l-25 -23 0 34 c0 19 5 40 11
46 15 15 39 5 39 -16z m40 -73 c0 -14 -47 -39 -86 -45 l-39 -5 50 45 c44 41
51 44 63 29 6 -9 12 -19 12 -24z m-184 -3 c3 -19 3 -46 0 -59 -6 -26 -52 -86
-65 -86 -4 0 4 40 18 90 14 49 29 90 33 90 4 0 10 -16 14 -35z m154 -99 c0
-26 -50 -56 -94 -56 -67 0 -75 14 -25 44 49 29 119 36 119 12z m-722 -48 c108
-40 200 -140 247 -270 14 -38 25 -57 29 -48 89 242 129 346 133 350 3 3 3 -24
0 -60 -3 -42 -21 -110 -50 -190 -25 -69 -49 -138 -53 -155 -6 -29 -5 -28 24
11 52 71 133 116 235 132 31 5 57 8 57 6 0 -20 -56 -144 -73 -162 -37 -40 -94
-63 -170 -69 -49 -3 -81 -11 -100 -25 l-28 -19 7 48 c7 56 1 63 -61 83 -105
33 -188 93 -230 164 -24 41 -85 204 -85 226 0 14 42 6 118 -22z m607 -52 c17
-12 13 -14 -39 -20 -67 -9 -79 -4 -39 18 35 19 54 20 78 2z m-1011 -28 c11
-54 -16 -50 -29 5 -5 20 -3 27 8 27 8 0 17 -13 21 -32z m1346 13 c0 -11 -3
-27 -6 -36 -6 -14 -8 -13 -21 5 -12 16 -12 24 -3 35 17 21 30 19 30 -4z
m-1356 -91 c9 -22 16 -52 16 -66 0 -15 4 -23 11 -19 6 4 8 26 4 58 -5 39 -2
57 9 72 14 17 17 18 26 5 15 -23 12 -49 -14 -123 l-23 -67 -41 67 c-68 112
-78 152 -33 129 17 -9 35 -31 45 -56z m1303 29 c7 -13 13 -46 14 -74 l1 -50
13 53 c15 61 39 102 60 102 18 0 13 -32 -18 -100 -11 -25 -25 -60 -32 -79
l-12 -34 -28 59 c-32 69 -46 159 -24 152 8 -3 20 -15 26 -29z m1670 -76 c-6
-107 -32 -197 -86 -298 -18 -33 -29 -51 -25 -40 3 11 16 49 29 85 26 76 60
222 70 298 11 86 18 59 12 -45z m-4653 0 c19 -95 63 -241 99 -330 14 -35 23
-63 21 -63 -9 0 -81 161 -103 229 -23 71 -41 166 -41 220 0 49 5 37 24 -56z
m1539 -66 c48 -21 114 -83 139 -131 11 -22 49 -86 84 -141 64 -101 81 -141 48
-114 -12 10 -17 10 -23 0 -6 -10 -17 -10 -47 -2 -49 14 -136 62 -142 79 -6 19
60 15 118 -7 33 -13 50 -15 47 -8 -8 25 -91 77 -145 92 -145 40 -203 95 -247
234 l-7 24 69 -6 c39 -3 86 -12 106 -20z m1807 11 c0 -24 -47 -114 -78 -149
-33 -38 -95 -69 -185 -94 -38 -10 -71 -28 -95 -50 l-37 -35 30 5 c101 14 125
15 125 0 0 -19 -48 -43 -134 -67 -39 -10 -79 -21 -89 -24 -17 -5 -18 -4 -4 18
8 12 52 86 97 163 87 148 118 188 163 212 58 29 207 45 207 21z m-2231 -12
c14 -17 31 -106 20 -106 -12 0 -49 50 -55 76 -10 38 12 58 35 30z m2439 -10
c4 -20 -38 -106 -52 -106 -11 0 2 101 16 118 14 16 32 10 36 -12z m-2353 -43
c29 -56 89 -126 130 -150 13 -8 4 -7 -29 2 -55 16 -111 63 -132 112 -15 35
-19 93 -6 93 4 0 21 -26 37 -57z m2275 -3 c0 -49 -40 -98 -105 -129 -56 -26
-65 -27 -33 -1 22 17 45 50 105 148 20 33 33 27 33 -18z m-1680 -55 c0 -43 -4
-75 -10 -75 -11 0 -14 133 -3 143 12 13 13 7 13 -68z m1830 60 c0 -17 -35 -55
-49 -55 -22 0 -20 22 3 45 28 28 46 32 46 10z m-2563 -17 c42 -39 22 -65 -25
-32 -23 16 -30 54 -10 54 6 0 22 -10 35 -22z m1869 -14 c8 -41 0 -112 -14
-126 -6 -6 -9 22 -8 76 1 90 10 111 22 50z m-789 -39 c103 -46 163 -108 163
-167 0 -23 -4 -28 -25 -28 -37 0 -95 27 -128 58 -43 41 -101 162 -78 162 6 0
36 -11 68 -25z m-288 -67 c0 -50 -3 -67 -9 -53 -12 28 -12 125 0 125 6 0 10
-30 9 -72z m1020 45 c0 -16 -4 -48 -8 -73 -8 -43 -9 -41 -10 28 0 42 3 72 9
72 6 0 10 -12 9 -27z m726 -3 c3 -5 1 -19 -5 -30 -11 -20 -11 -20 -60 5 -28
14 -50 27 -50 29 0 8 110 5 115 -4z m-2449 -14 c3 -8 25 -17 50 -21 24 -3 44
-10 44 -15 0 -5 -25 -14 -56 -21 -50 -11 -57 -11 -65 4 -5 9 -25 19 -44 23
-25 4 -35 11 -35 25 0 16 8 19 50 19 34 0 52 -5 56 -14z m766 -63 c-3 -32 -9
-67 -14 -78 -6 -14 -7 -4 -3 29 3 27 5 62 5 77 0 16 4 29 8 29 5 0 7 -26 4
-57z m1613 25 l20 -20 -55 6 c-30 3 -65 6 -77 6 -34 0 -28 18 10 29 41 12 77
5 102 -21z m-1480 -39 c46 -62 61 -125 33 -133 -7 -2 -40 -12 -73 -22 -86 -27
-85 -27 -85 -12 0 23 65 228 73 228 4 0 27 -27 52 -61z m678 -6 c33 -71 46
-159 30 -202 -9 -23 -11 -22 -41 28 -33 53 -61 71 -112 71 -38 0 -43 10 -21
46 20 31 100 124 107 124 3 0 19 -30 37 -67z m1497 -57 c-10 -51 -83 -216 -95
-216 -3 0 2 17 11 38 30 69 73 202 81 250 7 43 8 44 11 14 2 -18 -2 -57 -8
-86z m-3762 -69 c28 -86 48 -157 46 -157 -8 0 -55 104 -79 174 -21 63 -35 159
-20 145 2 -3 26 -75 53 -162z m902 114 c0 -5 -12 -16 -26 -26 -20 -13 -28 -14
-34 -5 -5 9 -15 3 -31 -19 -16 -22 -25 -27 -31 -19 -10 17 0 50 20 66 18 14
102 17 102 3z m2108 -39 c7 -21 -36 -13 -52 10 -9 12 -16 26 -16 31 0 12 62
-25 68 -41z m-90 26 c7 -7 12 -23 12 -35 0 -27 -12 -23 -65 22 l-30 25 36 0
c19 0 40 -5 47 -12z m-2524 -62 c129 -72 333 -258 411 -373 l42 -64 6 53 c4
29 7 74 7 101 0 26 3 47 8 47 12 0 52 -64 62 -101 6 -19 10 -66 10 -105 l0
-71 -68 -6 c-37 -4 -92 -3 -122 2 -62 10 -196 61 -202 76 -5 17 121 29 177 17
28 -6 57 -13 67 -17 12 -5 -451 460 -471 472 -2 2 -1 3 4 3 4 0 36 -15 69 -34z
m2819 -123 c-77 -82 -175 -185 -217 -230 l-77 -82 118 -3 118 -3 -41 -27 c-58
-37 -136 -58 -221 -58 -88 0 -108 14 -117 86 -8 57 3 98 41 162 l28 47 7 -45
c3 -25 7 -71 7 -102 1 -32 4 -58 9 -58 4 0 27 33 51 73 59 95 201 235 325 320
55 37 102 67 104 67 2 0 -59 -66 -135 -147z m-2156 98 c54 -26 223 -128 223
-136 0 -7 -111 19 -164 39 -55 21 -204 92 -216 103 -2 2 2 8 10 13 28 18 85
10 147 -19z m1777 16 c15 -11 5 -19 -91 -64 -102 -49 -171 -74 -238 -87 l-30
-6 40 35 c116 102 267 160 319 122z m-1032 -53 c46 -18 48 -18 93 4 62 30 78
28 126 -15 35 -32 47 -36 92 -37 l52 -1 6 -43 c7 -53 34 -90 90 -122 57 -33
84 -85 83 -160 -1 -103 -66 -185 -178 -226 -100 -36 -105 -32 -46 36 29 34 51
62 49 64 -2 2 -35 -16 -73 -41 -37 -24 -70 -42 -73 -40 -2 3 5 37 17 77 12 40
19 74 17 76 -3 3 -21 -24 -41 -60 -20 -37 -41 -66 -46 -66 -6 0 -10 59 -10
142 0 81 -4 138 -9 133 -4 -6 -16 -53 -26 -105 -10 -52 -20 -99 -23 -104 -2
-5 -15 23 -27 62 -20 63 -63 148 -70 140 -2 -2 3 -38 11 -81 8 -44 14 -83 12
-89 -2 -6 -30 24 -61 66 -32 42 -59 76 -62 76 -4 0 8 -29 59 -144 14 -33 23
-62 20 -65 -3 -3 -26 16 -50 44 -24 27 -44 47 -44 44 0 -3 11 -33 25 -67 14
-34 25 -64 25 -66 0 -3 -33 10 -72 29 -40 18 -75 32 -77 29 -2 -2 22 -29 55
-59 l59 -54 -40 0 c-80 -1 -178 68 -220 154 -16 31 -20 60 -20 135 0 84 4 102
29 153 32 67 97 117 151 117 38 0 70 22 91 62 17 33 23 33 106 2z m-877 -29
c76 -16 225 -63 238 -75 12 -10 -101 -40 -153 -40 -57 0 -122 32 -160 80 -16
21 -30 41 -30 44 0 9 29 7 105 -9z m1955 -6 c0 -22 -76 -87 -115 -98 -55 -15
-92 -14 -156 5 l-54 16 80 30 c145 54 245 73 245 47z m-1535 -93 c28 -12 24
-14 -113 -48 -78 -20 -142 -32 -142 -27 0 15 80 62 128 75 60 16 90 16 127 0z
m1170 -26 c23 -11 52 -31 65 -45 l23 -25 -29 0 c-89 0 -234 44 -234 71 0 25
124 24 175 -1z m-1200 -76 c18 -5 20 -13 20 -97 0 -74 4 -102 22 -139 23 -50
99 -133 155 -169 35 -22 33 -22 -41 -2 -15 3 -22 2 -18 -4 3 -5 56 -29 116
-54 61 -24 111 -47 111 -51 0 -18 -119 -51 -190 -51 -124 -2 -184 36 -272 170
-91 138 -114 201 -102 279 9 64 47 105 105 114 60 10 71 11 94 4z m1247 -66
c9 -7 21 -31 28 -53 13 -39 95 -128 198 -216 59 -50 58 -84 -4 -135 -56 -46
-61 -55 -78 -148 -18 -93 -47 -151 -89 -176 -43 -27 -78 -25 -142 6 -57 28
-63 44 -17 45 15 0 35 4 45 8 14 5 6 10 -32 20 -35 9 -67 27 -102 59 l-51 45
51 21 c63 26 113 65 152 118 41 58 36 65 -12 17 -73 -73 -175 -101 -285 -79
-90 19 -93 24 -27 50 87 35 88 42 1 34 -43 -4 -78 -4 -78 -1 0 3 26 20 58 38
116 66 176 135 212 245 26 78 64 114 119 114 20 0 44 -6 53 -12z m-2702 -77
c0 -5 -42 -11 -92 -15 -51 -4 -114 -10 -140 -13 -30 -3 -48 -2 -48 5 0 5 49
14 113 19 157 14 167 14 167 4z m4220 -12 c32 -6 12 -7 -70 -5 -63 2 -126 8
-140 15 -20 9 -5 10 70 5 52 -4 115 -10 140 -15z m-5240 -184 c54 -41 102 -80
105 -86 11 -17 64 -243 59 -249 -3 -2 -25 6 -49 19 -103 55 -207 212 -221 334
-4 31 -4 57 0 57 4 0 51 -34 106 -75z m1419 49 c30 -8 90 -31 135 -50 99 -44
212 -74 280 -74 l51 -1 -56 -30 c-31 -17 -94 -62 -140 -100 -154 -129 -310
-203 -504 -239 -86 -16 -325 -26 -325 -13 0 6 33 14 73 18 202 19 395 69 530
136 88 44 271 175 262 188 -9 15 -163 -25 -335 -87 -315 -114 -309 -94 12 39
125 52 228 96 228 99 0 12 -58 39 -119 55 -123 32 -358 32 -332 1 9 -10 -7
-14 -77 -19 -87 -6 -182 -31 -182 -48 0 -5 7 -9 15 -9 40 0 2 -20 -137 -71
-84 -31 -154 -61 -155 -66 -2 -5 7 -14 19 -20 28 -13 41 -8 -192 -77 -158 -46
-188 -52 -205 -42 -13 9 -32 53 -56 130 -20 64 -34 116 -30 116 4 0 30 -7 57
-15 90 -27 191 -36 275 -25 99 12 187 42 373 125 136 61 219 87 306 98 51 7
167 -3 229 -19z m3522 0 c32 -8 130 -46 220 -85 89 -39 203 -82 252 -96 79
-23 102 -25 210 -21 88 4 139 11 182 26 33 11 61 19 63 17 9 -9 -74 -248 -87
-253 -19 -7 -209 41 -319 80 -70 26 -80 32 -66 42 14 10 3 18 -73 53 -48 23
-121 51 -162 63 -68 21 -72 24 -51 35 22 12 21 12 -17 28 -49 19 -144 37 -199
37 -34 0 -42 3 -40 18 3 43 -288 17 -410 -38 l-49 -21 35 -15 c68 -29 395
-166 420 -176 14 -6 20 -12 15 -14 -6 -2 -134 36 -285 85 -151 50 -277 87
-280 85 -10 -11 126 -129 190 -167 108 -62 204 -93 444 -141 127 -26 232 -49
235 -53 11 -11 -243 6 -327 22 -170 33 -337 105 -457 197 -31 24 -93 69 -138
101 -94 67 -99 72 -70 63 38 -12 143 14 283 69 216 85 323 98 481 59z m1195
-107 c-19 -66 -80 -160 -134 -209 -51 -46 -122 -84 -122 -66 0 7 12 67 27 132
l28 120 105 78 105 78 3 -40 c2 -23 -4 -64 -12 -93z m-3844 56 c8 -10 30 -47
49 -82 44 -84 106 -145 169 -166 55 -18 62 -33 29 -66 -19 -19 -30 -21 -115
-17 -52 1 -94 0 -94 -3 0 -3 34 -14 75 -24 41 -11 75 -22 75 -26 0 -13 -91
-52 -134 -56 -64 -8 -119 12 -160 57 -48 53 -54 81 -26 120 24 34 28 87 11
133 -19 50 -13 86 18 118 34 33 80 39 103 12z m614 -251 c-8 -16 -45 -57 -82
-91 -37 -33 -61 -61 -53 -61 21 0 114 45 164 80 49 34 50 34 34 -7 -44 -114
-67 -183 -61 -183 4 0 34 41 66 91 65 99 74 100 75 9 1 -25 5 -51 10 -58 10
-16 17 16 27 128 11 119 8 118 98 44 43 -36 81 -63 83 -60 3 3 -15 29 -40 58
-26 28 -45 54 -42 56 8 9 209 -19 223 -31 22 -18 52 -88 52 -122 0 -97 -55
-168 -165 -214 -40 -17 -86 -31 -102 -31 -27 0 -90 26 -125 52 -15 11 -23 7
-55 -24 -21 -19 -48 -41 -60 -47 -60 -30 -205 4 -259 62 -26 28 -33 47 -42
110 -7 43 -23 103 -36 135 -31 73 -36 108 -16 103 46 -12 209 -1 260 17 30 11
56 18 58 17 2 -2 -3 -17 -12 -33z m441 -464 c16 -21 125 -289 120 -295 -3 -2
-45 61 -93 142 -70 118 -85 148 -73 156 20 12 35 11 46 -3z m-541 -54 c-14
-35 -158 -285 -163 -281 -8 8 99 259 119 279 23 23 53 24 44 2z"/>
<path d="M6750 7243 c0 -41 22 -148 35 -173 8 -15 35 -48 60 -73 25 -25 45
-48 45 -51 0 -3 -18 -6 -40 -6 -56 0 -50 -16 13 -34 89 -26 134 -88 197 -272
36 -105 40 -112 34 -64 -8 65 -36 162 -70 239 l-25 55 25 35 c14 19 23 38 20
42 -7 12 -74 -31 -74 -47 0 -8 -4 -14 -9 -14 -9 0 -31 127 -31 177 0 66 -61
142 -152 189 -26 13 -28 13 -28 -3z"/>
<path d="M2255 7233 c-44 -23 -94 -73 -116 -116 -11 -21 -24 -73 -29 -115 -5
-42 -12 -87 -16 -99 -7 -25 -24 -31 -24 -10 0 20 -33 47 -58 47 -26 0 -28 -12
-6 -30 37 -31 36 -47 -5 -122 -52 -96 -89 -206 -141 -413 -42 -168 -67 -242
-56 -160 25 170 16 285 -28 379 -23 50 -99 146 -116 146 -5 0 11 -42 35 -92
79 -170 91 -289 44 -460 -21 -78 -59 -181 -65 -175 -2 2 3 38 11 81 19 97 19
262 1 341 -28 122 -89 345 -95 345 -9 0 -79 -229 -86 -281 -9 -74 12 -173 60
-278 53 -118 64 -156 73 -270 l7 -89 76 136 c95 171 120 233 169 424 29 112
55 183 95 263 70 142 109 188 178 210 81 27 87 41 25 54 l-33 7 32 17 c46 24
80 74 98 142 16 62 20 135 8 135 -5 -1 -21 -8 -38 -17z"/>
<path d="M2031 6983 c11 -27 27 -55 35 -63 12 -12 14 -9 14 27 0 33 -5 46 -26
62 -40 32 -45 26 -23 -26z"/>
<path d="M6976 6998 c-17 -24 -22 -78 -7 -78 15 0 51 56 51 79 0 28 -25 27
-44 -1z"/>
<path d="M7352 6674 c-66 -229 -87 -371 -73 -499 6 -44 13 -89 17 -100 5 -13
4 -17 -3 -10 -16 16 -61 155 -74 230 -23 131 5 281 72 389 16 27 28 50 26 53
-11 10 -109 -98 -129 -142 -21 -45 -23 -64 -23 -200 0 -144 2 -154 34 -249 30
-84 110 -239 142 -271 7 -7 8 12 3 55 -9 90 9 171 56 263 50 97 70 171 70 262
0 77 -28 201 -63 279 l-23 50 -32 -110z"/>
<path d="M6520 6335 c83 -85 157 -134 358 -235 197 -98 282 -162 331 -250 l24
-42 -57 46 c-117 95 -260 144 -383 130 -35 -3 -66 -10 -69 -15 -3 -5 0 -9 6
-9 6 0 50 -26 98 -58 119 -80 218 -133 375 -201 114 -50 136 -63 159 -97 29
-42 85 -175 95 -227 6 -30 4 -29 -44 29 -95 114 -231 215 -419 312 -308 158
-597 180 -875 68 l-62 -25 34 36 c93 97 251 191 394 233 l70 20 -61 -5 c-116
-9 -284 -73 -404 -155 -62 -43 -161 -143 -207 -210 -47 -69 -99 -179 -113
-239 -39 -165 38 -343 187 -431 18 -11 33 -17 33 -13 0 3 -21 28 -46 55 -104
111 -143 282 -93 413 44 119 183 224 374 285 107 35 324 39 465 10 178 -36
329 -107 510 -241 174 -127 273 -241 320 -366 11 -30 36 -130 55 -221 20 -91
38 -168 41 -171 4 -3 4 37 2 89 -4 69 -21 159 -62 328 -82 340 -79 370 53 517
40 44 85 106 101 138 42 85 46 142 19 307 -24 151 -40 174 -50 74 -11 -109
-57 -213 -140 -315 -28 -35 -60 -84 -71 -108 -25 -55 -33 -140 -20 -211 6 -30
9 -56 8 -58 -2 -1 -24 42 -50 95 -117 244 -277 496 -376 594 -115 114 -238
161 -459 175 l-106 6 55 -57z"/>
<path d="M1380 6173 c0 -5 25 -49 56 -98 74 -119 111 -193 129 -261 8 -32 16
-59 18 -61 2 -2 7 18 10 44 11 93 -19 183 -89 269 -39 47 -124 120 -124 107z"/>
<path d="M7553 6131 c-104 -82 -163 -190 -162 -296 1 -100 13 -107 32 -19 19
88 50 154 106 229 43 58 85 125 78 125 -3 0 -27 -17 -54 -39z"/>
<path d="M724 5616 c12 -351 78 -506 327 -776 118 -128 181 -208 236 -299 38
-64 44 -70 38 -41 -28 146 -37 231 -45 412 -10 228 -23 300 -75 415 -47 103
-97 173 -182 258 -69 69 -269 215 -295 215 -8 0 -9 -52 -4 -184z m347 -492
c44 -143 84 -272 89 -287 13 -39 -4 -26 -35 27 -41 70 -83 197 -109 329 -28
142 -37 201 -30 194 3 -2 41 -121 85 -263z"/>
<path d="M8180 5757 c-204 -125 -350 -291 -416 -473 -33 -90 -54 -219 -54
-333 0 -115 -24 -335 -45 -411 -22 -82 -19 -82 29 1 56 95 113 167 261 326
176 190 236 291 275 456 22 97 33 291 22 398 l-7 76 -65 -40z m-181 -462 c-13
-109 -43 -232 -75 -307 -27 -65 -93 -182 -100 -176 -2 2 33 114 76 248 44 135
85 262 91 284 16 58 19 40 8 -49z"/>
<path d="M7241 5225 c-1 -5 6 -35 14 -65 8 -30 29 -149 45 -265 38 -256 49
-307 102 -460 38 -109 42 -129 42 -220 1 -93 -21 -220 -45 -265 -4 -8 -7 50
-7 130 0 122 -3 155 -21 208 -20 59 -140 345 -160 380 -16 28 -26 -70 -26
-248 0 -187 8 -223 78 -375 41 -89 42 -92 42 -200 -1 -102 -3 -117 -36 -202
l-36 -91 46 38 c69 58 159 96 310 131 264 61 340 90 439 168 75 59 135 140
198 266 l56 110 -33 3 c-103 10 -335 -40 -419 -91 -76 -46 -164 -123 -237
-210 -42 -51 -113 -132 -157 -182 -44 -49 -82 -92 -83 -94 -2 -2 -6 -2 -9 2
-8 7 85 179 174 321 83 132 149 199 249 256 292 165 397 263 463 431 23 56 53
179 47 185 -2 2 -68 -32 -147 -76 -290 -163 -289 -162 -585 -690 -75 -135
-134 -234 -130 -220 4 14 30 93 56 176 92 286 117 426 99 568 -18 150 -72 274
-175 411 -66 86 -154 184 -154 170z m100 -1095 c22 -102 28 -270 10 -325 -7
-24 -9 -8 -10 70 -1 56 -12 169 -26 253 -14 84 -25 160 -24 170 1 25 25 -58
50 -168z m527 -102 c-4 -11 -246 -167 -261 -168 -26 -1 12 29 123 99 129 81
144 89 138 69z"/>
<path d="M1663 5147 c-157 -188 -220 -317 -243 -500 -22 -179 40 -466 165
-762 33 -79 -6 -15 -170 280 -238 425 -253 447 -371 531 -77 55 -325 196 -332
189 -11 -11 30 -154 62 -218 71 -140 180 -249 346 -342 149 -85 178 -105 237
-169 86 -93 300 -439 291 -468 -2 -6 -73 70 -157 168 -84 98 -180 202 -213
231 -114 97 -253 154 -423 173 -119 13 -145 13 -145 -3 0 -21 67 -153 108
-215 48 -69 160 -177 225 -215 76 -45 168 -75 294 -97 198 -35 294 -75 379
-160 27 -27 52 -50 55 -50 4 0 -9 29 -27 64 -41 76 -74 199 -74 270 0 67 22
151 59 224 82 163 96 327 48 542 l-13 55 -67 -170 c-89 -228 -100 -265 -101
-365 -1 -91 10 -180 23 -180 4 0 20 80 36 178 15 97 31 181 36 187 15 15 10
-50 -12 -179 -12 -67 -24 -173 -28 -236 l-6 -115 -42 125 c-81 240 -82 330 -4
571 35 111 56 200 75 319 35 231 58 402 53 406 -1 2 -30 -29 -64 -69z m-408
-1194 c68 -42 121 -81 119 -85 -3 -5 -11 -5 -18 -1 -103 62 -236 149 -236 155
0 14 12 8 135 -69z"/>
<path d="M6365 5176 c-5 -3 -46 -8 -90 -12 -78 -8 -76 -9 85 -15 91 -4 197
-14 235 -22 68 -15 400 -115 519 -157 33 -11 61 -18 63 -16 8 7 -121 93 -195
130 -131 66 -232 87 -432 92 -96 2 -179 2 -185 0z"/>
<path d="M6470 4933 c-112 -14 -332 -13 -375 1 -11 4 -9 1 6 -8 44 -26 170
-56 259 -62 59 -5 164 2 345 20 320 33 331 35 245 52 -86 17 -335 16 -480 -3z"/>
<path d="M6432 4729 c-99 -12 -163 -29 -407 -109 -115 -38 -245 -74 -288 -81
-71 -11 -194 -8 -257 6 -14 3 0 -7 30 -21 112 -53 272 -68 413 -39 40 8 133
33 206 55 191 58 298 73 456 67 141 -6 227 -25 409 -91 55 -20 104 -35 110
-33 6 2 -16 31 -50 64 -70 69 -208 142 -314 167 -86 20 -218 26 -308 15z"/>
<path d="M2117 4276 c69 -37 103 -63 241 -183 110 -95 261 -199 353 -243 83
-39 148 -51 250 -48 l84 3 -75 14 c-196 35 -307 94 -475 250 -147 138 -238
195 -360 227 -79 22 -85 16 -18 -20z"/>
<path d="M7055 4234 c-3 -21 -18 -79 -32 -129 -53 -186 -56 -211 -58 -440 -1
-172 -5 -234 -19 -284 -9 -35 -15 -65 -13 -68 7 -7 73 88 104 152 40 80 70
172 93 286 l18 94 1 -65 c1 -111 -51 -269 -137 -419 -42 -73 -40 -81 13 -61
56 21 182 50 303 70 193 31 295 70 427 161 68 47 203 174 194 183 -2 2 -51 -6
-109 -18 -276 -59 -489 -145 -687 -278 -40 -27 -73 -46 -73 -42 0 3 8 18 19
32 10 15 33 56 50 91 112 221 91 490 -57 725 l-30 50 -7 -40z"/>
<path d="M1883 4208 c-94 -157 -127 -273 -121 -433 5 -125 29 -208 94 -322 22
-37 40 -71 42 -75 2 -4 -34 18 -79 48 -97 65 -248 140 -374 184 -96 34 -396
113 -403 106 -7 -8 124 -133 190 -182 130 -96 229 -134 442 -170 158 -26 233
-45 302 -75 l42 -17 -63 131 c-73 153 -111 267 -120 358 -5 60 -3 57 30 -61
38 -135 115 -303 164 -360 l30 -35 -21 65 c-18 57 -21 94 -23 285 -3 228 -6
253 -54 420 -16 55 -33 120 -38 143 l-8 44 -32 -54z"/>
</g>
</svg>
