<svg xmlns="http://www.w3.org/2000/svg" xmlns:xlink="http://www.w3.org/1999/xlink" width="1080" zoomAndPan="magnify" viewBox="0 0 810 809.999993" height="1080" preserveAspectRatio="xMidYMid meet" version="1.0"><defs><g/></defs><g fill="#007bf0" fill-opacity="1"><g transform="translate(136.1408, 422.624999)"><g><path d="M 61.84375 -46.71875 L 60.71875 -46.71875 C 60.71875 -48.101562 59.835938 -48.796875 58.078125 -48.796875 L 19.515625 -48.796875 L 19.515625 -34.5625 L 44.640625 -34.5625 C 45.492188 -34.5625 46.160156 -34.707031 46.640625 -35 C 47.117188 -35.289062 47.359375 -35.835938 47.359375 -36.640625 L 48.484375 -36.640625 L 48.484375 -23.203125 L 47.359375 -23.203125 C 47.359375 -24.484375 46.476562 -25.125 44.71875 -25.125 L 19.515625 -25.125 L 19.515625 -9.4375 L 58.71875 -9.4375 C 60.53125 -9.4375 61.4375 -10.078125 61.4375 -11.359375 L 62.5625 -11.359375 L 62.5625 1.765625 L 61.4375 1.765625 C 61.4375 0.585938 60.53125 0 58.71875 0 L 6.078125 0 L 6.078125 -1.125 C 6.929688 -1.125 7.488281 -1.28125 7.75 -1.59375 C 8.019531 -1.914062 8.15625 -2.53125 8.15625 -3.4375 L 8.15625 -54.71875 C 8.15625 -55.570312 8.035156 -56.1875 7.796875 -56.5625 C 7.554688 -56.9375 6.984375 -57.125 6.078125 -57.125 L 6.078125 -58.234375 L 58 -58.234375 C 59.8125 -58.234375 60.71875 -58.820312 60.71875 -60 L 61.84375 -60 Z M 61.84375 -46.71875 "/></g></g></g><g fill="#007bf0" fill-opacity="1"><g transform="translate(202.77433, 422.624999)"><g><path d="M 28.953125 -49.59375 C 33.273438 -49.59375 36.984375 -49.191406 40.078125 -48.390625 C 43.171875 -47.597656 45.890625 -46.664062 48.234375 -45.59375 C 48.773438 -45.332031 49.320312 -45.050781 49.875 -44.75 C 50.4375 -44.457031 50.828125 -44.3125 51.046875 -44.3125 C 51.148438 -44.3125 51.28125 -44.351562 51.4375 -44.4375 C 51.601562 -44.519531 51.738281 -44.613281 51.84375 -44.71875 L 52.953125 -44.3125 L 47.6875 -34.3125 L 46.5625 -35.046875 L 46.5625 -36 C 46.5625 -36.53125 46.082031 -37.128906 45.125 -37.796875 C 44.164062 -38.460938 42.882812 -39.085938 41.28125 -39.671875 C 39.675781 -40.265625 37.832031 -40.757812 35.75 -41.15625 C 33.675781 -41.5625 31.519531 -41.765625 29.28125 -41.765625 C 24.476562 -41.765625 20.796875 -41.1875 18.234375 -40.03125 C 15.679688 -38.882812 14.40625 -37.273438 14.40625 -35.203125 C 14.40625 -33.765625 14.921875 -32.679688 15.953125 -31.953125 C 16.992188 -31.234375 18.367188 -30.710938 20.078125 -30.390625 C 21.785156 -30.078125 23.734375 -29.90625 25.921875 -29.875 C 28.109375 -29.851562 30.375 -29.789062 32.71875 -29.6875 C 35.332031 -29.570312 37.890625 -29.34375 40.390625 -29 C 42.898438 -28.65625 45.128906 -27.972656 47.078125 -26.953125 C 49.023438 -25.941406 50.597656 -24.515625 51.796875 -22.671875 C 52.992188 -20.835938 53.59375 -18.375 53.59375 -15.28125 C 53.59375 -10.15625 51.363281 -6.191406 46.90625 -3.390625 C 42.457031 -0.597656 36.101562 0.796875 27.84375 0.796875 C 23.09375 0.796875 19.25 0.4375 16.3125 -0.28125 C 13.382812 -1 11.015625 -1.8125 9.203125 -2.71875 C 8.347656 -3.144531 7.664062 -3.488281 7.15625 -3.75 C 6.65625 -4.019531 6.191406 -4.15625 5.765625 -4.15625 C 5.390625 -4.15625 5.015625 -4.050781 4.640625 -3.84375 L 3.59375 -4.3125 L 9.515625 -15.046875 L 10.5625 -14.40625 L 10.484375 -13.4375 C 10.484375 -12.6875 11.039062 -11.9375 12.15625 -11.1875 C 13.28125 -10.445312 14.75 -9.769531 16.5625 -9.15625 C 18.375 -8.539062 20.453125 -8.035156 22.796875 -7.640625 C 25.140625 -7.242188 27.539062 -7.046875 30 -7.046875 C 34.695312 -7.046875 38.253906 -7.75 40.671875 -9.15625 C 43.097656 -10.570312 44.3125 -12.5625 44.3125 -15.125 C 44.3125 -16.5625 43.710938 -17.640625 42.515625 -18.359375 C 41.316406 -19.078125 39.785156 -19.597656 37.921875 -19.921875 C 36.054688 -20.242188 34.015625 -20.414062 31.796875 -20.4375 C 29.585938 -20.46875 27.441406 -20.535156 25.359375 -20.640625 C 22.265625 -20.796875 19.460938 -21.085938 16.953125 -21.515625 C 14.453125 -21.941406 12.320312 -22.609375 10.5625 -23.515625 C 8.800781 -24.421875 7.453125 -25.632812 6.515625 -27.15625 C 5.585938 -28.675781 5.125 -30.609375 5.125 -32.953125 C 5.125 -35.191406 5.601562 -37.328125 6.5625 -39.359375 C 7.519531 -41.390625 8.972656 -43.160156 10.921875 -44.671875 C 12.867188 -46.191406 15.332031 -47.390625 18.3125 -48.265625 C 21.300781 -49.148438 24.847656 -49.59375 28.953125 -49.59375 Z M 28.953125 -49.59375 "/></g></g></g><g fill="#007bf0" fill-opacity="1"><g transform="translate(260.528722, 422.624999)"><g><path d="M 2.5625 -49.765625 L 3.6875 -49.765625 C 3.6875 -49.335938 3.910156 -49.066406 4.359375 -48.953125 C 4.816406 -48.847656 5.390625 -48.796875 6.078125 -48.796875 L 47.28125 -48.796875 C 47.914062 -48.796875 48.457031 -48.847656 48.90625 -48.953125 C 49.363281 -49.066406 49.59375 -49.335938 49.59375 -49.765625 L 50.71875 -49.765625 L 50.71875 -40 L 49.59375 -40 C 49.59375 -40.425781 49.394531 -40.691406 49 -40.796875 C 48.601562 -40.898438 48.03125 -40.953125 47.28125 -40.953125 L 31.515625 -40.953125 L 31.515625 -2.875 C 31.515625 -2.289062 31.617188 -1.851562 31.828125 -1.5625 C 32.046875 -1.269531 32.503906 -1.125 33.203125 -1.125 L 33.203125 0 L 20.15625 0 L 20.15625 -1.125 C 20.851562 -1.125 21.296875 -1.269531 21.484375 -1.5625 C 21.671875 -1.851562 21.765625 -2.289062 21.765625 -2.875 L 21.765625 -40.953125 L 5.84375 -40.953125 C 5.195312 -40.953125 4.675781 -40.898438 4.28125 -40.796875 C 3.882812 -40.691406 3.6875 -40.425781 3.6875 -40 L 2.5625 -40 Z M 2.5625 -49.765625 "/></g></g></g><g fill="#007bf0" fill-opacity="1"><g transform="translate(313.883535, 422.624999)"><g><path d="M 20.234375 -20.953125 L 36.234375 -20.953125 L 28.15625 -38.5625 Z M 35.6875 -48.796875 L 35.6875 -47.6875 C 35.414062 -47.6875 35.1875 -47.617188 35 -47.484375 C 34.8125 -47.347656 34.71875 -47.144531 34.71875 -46.875 C 34.71875 -46.664062 34.769531 -46.453125 34.875 -46.234375 C 34.988281 -46.023438 35.226562 -45.546875 35.59375 -44.796875 L 53.6875 -5.59375 C 54.476562 -3.832031 55.0625 -2.644531 55.4375 -2.03125 C 55.8125 -1.425781 56.210938 -1.125 56.640625 -1.125 L 56.640625 0 L 43.59375 0 L 43.59375 -1.125 C 44.289062 -1.125 44.640625 -1.390625 44.640625 -1.921875 C 44.640625 -2.179688 44.582031 -2.445312 44.46875 -2.71875 C 44.363281 -2.988281 44.257812 -3.253906 44.15625 -3.515625 C 44.050781 -3.785156 43.640625 -4.691406 42.921875 -6.234375 C 42.203125 -7.785156 41.148438 -10.082031 39.765625 -13.125 L 16.71875 -13.125 L 12.71875 -3.84375 C 12.34375 -2.988281 12.15625 -2.425781 12.15625 -2.15625 C 12.15625 -1.46875 12.609375 -1.125 13.515625 -1.125 L 13.515625 0 L 1.125 0 L 1.125 -1.125 C 1.863281 -1.125 2.378906 -1.441406 2.671875 -2.078125 C 2.972656 -2.722656 3.414062 -3.710938 4 -5.046875 L 21.59375 -44.234375 C 21.914062 -44.984375 22.15625 -45.53125 22.3125 -45.875 C 22.476562 -46.226562 22.5625 -46.535156 22.5625 -46.796875 C 22.5625 -47.066406 22.46875 -47.28125 22.28125 -47.4375 C 22.09375 -47.601562 21.894531 -47.6875 21.6875 -47.6875 L 21.6875 -48.796875 Z M 35.6875 -48.796875 "/></g></g></g><g fill="#007bf0" fill-opacity="1"><g transform="translate(371.637927, 422.624999)"><g><path d="M 2.5625 -49.765625 L 3.6875 -49.765625 C 3.6875 -49.335938 3.910156 -49.066406 4.359375 -48.953125 C 4.816406 -48.847656 5.390625 -48.796875 6.078125 -48.796875 L 47.28125 -48.796875 C 47.914062 -48.796875 48.457031 -48.847656 48.90625 -48.953125 C 49.363281 -49.066406 49.59375 -49.335938 49.59375 -49.765625 L 50.71875 -49.765625 L 50.71875 -40 L 49.59375 -40 C 49.59375 -40.425781 49.394531 -40.691406 49 -40.796875 C 48.601562 -40.898438 48.03125 -40.953125 47.28125 -40.953125 L 31.515625 -40.953125 L 31.515625 -2.875 C 31.515625 -2.289062 31.617188 -1.851562 31.828125 -1.5625 C 32.046875 -1.269531 32.503906 -1.125 33.203125 -1.125 L 33.203125 0 L 20.15625 0 L 20.15625 -1.125 C 20.851562 -1.125 21.296875 -1.269531 21.484375 -1.5625 C 21.671875 -1.851562 21.765625 -2.289062 21.765625 -2.875 L 21.765625 -40.953125 L 5.84375 -40.953125 C 5.195312 -40.953125 4.675781 -40.898438 4.28125 -40.796875 C 3.882812 -40.691406 3.6875 -40.425781 3.6875 -40 L 2.5625 -40 Z M 2.5625 -49.765625 "/></g></g></g><g fill="#007bf0" fill-opacity="1"><g transform="translate(424.992729, 422.624999)"><g><path d="M 53.203125 -39.515625 L 52.078125 -39.515625 C 52.078125 -40.472656 51.304688 -40.953125 49.765625 -40.953125 L 17.59375 -40.953125 L 17.59375 -28.640625 L 38.40625 -28.640625 C 39.09375 -28.640625 39.648438 -28.71875 40.078125 -28.875 C 40.503906 -29.039062 40.71875 -29.335938 40.71875 -29.765625 L 41.84375 -29.765625 L 41.84375 -19.6875 L 40.71875 -19.6875 C 40.71875 -19.945312 40.53125 -20.195312 40.15625 -20.4375 C 39.78125 -20.675781 39.195312 -20.796875 38.40625 -20.796875 L 17.59375 -20.796875 L 17.59375 -7.84375 L 50.3125 -7.84375 C 50.90625 -7.84375 51.441406 -7.921875 51.921875 -8.078125 C 52.398438 -8.234375 52.640625 -8.523438 52.640625 -8.953125 L 53.765625 -8.953125 L 53.765625 0.953125 L 52.640625 0.953125 C 52.640625 0.523438 52.398438 0.257812 51.921875 0.15625 C 51.441406 0.0507812 50.851562 0 50.15625 0 L 6.40625 0 L 6.40625 -1.125 C 7.039062 -1.125 7.4375 -1.269531 7.59375 -1.5625 C 7.757812 -1.851562 7.84375 -2.375 7.84375 -3.125 L 7.84375 -45.6875 C 7.84375 -46.425781 7.757812 -46.941406 7.59375 -47.234375 C 7.4375 -47.535156 7.039062 -47.6875 6.40625 -47.6875 L 6.40625 -48.796875 L 49.6875 -48.796875 C 51.28125 -48.796875 52.078125 -49.117188 52.078125 -49.765625 L 53.203125 -49.765625 Z M 53.203125 -39.515625 "/></g></g></g><g fill="#007bf0" fill-opacity="1"><g transform="translate(482.74712, 422.624999)"><g><path d="M 20.40625 -48.796875 L 20.40625 -47.6875 C 19.757812 -47.6875 19.4375 -47.3125 19.4375 -46.5625 C 19.4375 -46.132812 19.675781 -45.519531 20.15625 -44.71875 L 35.765625 -17.125 L 50.234375 -44.3125 C 50.878906 -45.59375 51.203125 -46.421875 51.203125 -46.796875 C 51.203125 -47.066406 51.050781 -47.265625 50.75 -47.390625 C 50.457031 -47.523438 50.128906 -47.625 49.765625 -47.6875 L 49.765625 -48.796875 L 64.5625 -48.796875 L 64.5625 -47.6875 C 63.914062 -47.6875 63.484375 -47.5625 63.265625 -47.3125 C 63.054688 -47.070312 62.953125 -46.609375 62.953125 -45.921875 L 62.953125 -3.046875 C 62.953125 -2.296875 63.046875 -1.785156 63.234375 -1.515625 C 63.421875 -1.253906 63.863281 -1.125 64.5625 -1.125 L 64.5625 0 L 52.953125 0 L 52.953125 -1.125 C 53.597656 -1.125 54.015625 -1.269531 54.203125 -1.5625 C 54.390625 -1.851562 54.484375 -2.347656 54.484375 -3.046875 L 54.484375 -33.59375 L 54.3125 -33.59375 L 36.640625 0 L 35.046875 0 L 16.71875 -33.125 L 16.71875 -2.875 C 16.71875 -2.1875 16.847656 -1.722656 17.109375 -1.484375 C 17.378906 -1.242188 17.941406 -1.125 18.796875 -1.125 L 18.796875 0 L 6.5625 0 L 6.5625 -1.125 C 7.25 -1.125 7.695312 -1.253906 7.90625 -1.515625 C 8.125 -1.785156 8.234375 -2.238281 8.234375 -2.875 L 8.234375 -45.84375 C 8.234375 -46.582031 8.125 -47.070312 7.90625 -47.3125 C 7.695312 -47.5625 7.25 -47.6875 6.5625 -47.6875 L 6.5625 -48.796875 Z M 20.40625 -48.796875 "/></g></g></g><g fill="#007bf0" fill-opacity="1"><g transform="translate(553.8602, 422.624999)"><g><path d="M 20.234375 -20.953125 L 36.234375 -20.953125 L 28.15625 -38.5625 Z M 35.6875 -48.796875 L 35.6875 -47.6875 C 35.414062 -47.6875 35.1875 -47.617188 35 -47.484375 C 34.8125 -47.347656 34.71875 -47.144531 34.71875 -46.875 C 34.71875 -46.664062 34.769531 -46.453125 34.875 -46.234375 C 34.988281 -46.023438 35.226562 -45.546875 35.59375 -44.796875 L 53.6875 -5.59375 C 54.476562 -3.832031 55.0625 -2.644531 55.4375 -2.03125 C 55.8125 -1.425781 56.210938 -1.125 56.640625 -1.125 L 56.640625 0 L 43.59375 0 L 43.59375 -1.125 C 44.289062 -1.125 44.640625 -1.390625 44.640625 -1.921875 C 44.640625 -2.179688 44.582031 -2.445312 44.46875 -2.71875 C 44.363281 -2.988281 44.257812 -3.253906 44.15625 -3.515625 C 44.050781 -3.785156 43.640625 -4.691406 42.921875 -6.234375 C 42.203125 -7.785156 41.148438 -10.082031 39.765625 -13.125 L 16.71875 -13.125 L 12.71875 -3.84375 C 12.34375 -2.988281 12.15625 -2.425781 12.15625 -2.15625 C 12.15625 -1.46875 12.609375 -1.125 13.515625 -1.125 L 13.515625 0 L 1.125 0 L 1.125 -1.125 C 1.863281 -1.125 2.378906 -1.441406 2.671875 -2.078125 C 2.972656 -2.722656 3.414062 -3.710938 4 -5.046875 L 21.59375 -44.234375 C 21.914062 -44.984375 22.15625 -45.53125 22.3125 -45.875 C 22.476562 -46.226562 22.5625 -46.535156 22.5625 -46.796875 C 22.5625 -47.066406 22.46875 -47.28125 22.28125 -47.4375 C 22.09375 -47.601562 21.894531 -47.6875 21.6875 -47.6875 L 21.6875 -48.796875 Z M 35.6875 -48.796875 "/></g></g></g><g fill="#007bf0" fill-opacity="1"><g transform="translate(611.614591, 422.624999)"><g><path d="M 37.765625 -28.15625 C 39.304688 -28.15625 40.660156 -28.25 41.828125 -28.4375 C 43.003906 -28.625 43.976562 -28.957031 44.75 -29.4375 C 45.53125 -29.914062 46.117188 -30.566406 46.515625 -31.390625 C 46.921875 -32.222656 47.125 -33.304688 47.125 -34.640625 C 47.125 -36.878906 46.1875 -38.488281 44.3125 -39.46875 C 42.445312 -40.457031 39.914062 -40.953125 36.71875 -40.953125 L 18.15625 -40.953125 L 18.15625 -28.15625 Z M 34.234375 -48.796875 C 42.078125 -48.796875 47.8125 -47.59375 51.4375 -45.1875 C 55.0625 -42.789062 56.875 -39.035156 56.875 -33.921875 C 56.875 -32.160156 56.550781 -30.492188 55.90625 -28.921875 C 55.269531 -27.347656 54.363281 -25.957031 53.1875 -24.75 C 52.019531 -23.550781 50.597656 -22.566406 48.921875 -21.796875 C 47.242188 -21.023438 45.363281 -20.53125 43.28125 -20.3125 L 55.4375 -2.953125 C 55.8125 -2.421875 56.25 -1.984375 56.75 -1.640625 C 57.257812 -1.296875 57.8125 -1.125 58.40625 -1.125 L 58.40625 0 L 43.84375 0 L 43.84375 -1.125 C 44.269531 -1.125 44.484375 -1.3125 44.484375 -1.6875 C 44.484375 -1.945312 44.320312 -2.328125 44 -2.828125 C 43.675781 -3.335938 43.195312 -4.046875 42.5625 -4.953125 L 32.3125 -20.3125 L 18.15625 -20.3125 L 18.15625 -3.125 C 18.15625 -2.375 18.234375 -1.851562 18.390625 -1.5625 C 18.554688 -1.269531 18.957031 -1.125 19.59375 -1.125 L 19.59375 0 L 6.71875 0 L 6.71875 -1.125 C 7.414062 -1.125 7.867188 -1.253906 8.078125 -1.515625 C 8.296875 -1.785156 8.40625 -2.296875 8.40625 -3.046875 L 8.40625 -45.84375 C 8.40625 -46.582031 8.296875 -47.070312 8.078125 -47.3125 C 7.867188 -47.5625 7.414062 -47.6875 6.71875 -47.6875 L 6.71875 -48.796875 Z M 34.234375 -48.796875 "/></g></g></g></svg>